<svg width="40" height="40" viewBox="0 0 40 40" fill="none" xmlns="http://www.w3.org/2000/svg">
<path d="M30.3006 18.0718V17.0346H26.1516V15.4787H25.1144V17.0346H23.1265L23.5585 18.0718H28.0249C27.7059 18.6376 27.1769 19.4742 26.4109 20.3677C25.9447 19.8481 25.4722 19.2672 25.0221 18.619L24.17 19.2107C24.6684 19.929 25.1906 20.5679 25.703 21.1342C25.4287 21.4102 25.1331 21.685 24.8136 21.9537L25.48 22.7477C25.8166 22.465 26.1288 22.1761 26.4182 21.8868C27.9144 23.3788 29.1726 24.1697 29.2498 24.2179L29.7959 23.3358C29.7783 23.3249 28.5653 22.563 27.1271 21.1254C28.2593 19.8263 28.9273 18.6236 29.2032 18.0718H30.3006Z" fill="white"/>
<path d="M31.3378 10.2926H21.0328L19.3733 5.95692C19.3007 5.75984 19.1036 5.625 18.891 5.625H9.55585C8.70013 5.625 8 6.32513 8 7.18085V23.7766C8 24.6323 8.70013 25.3324 9.55585 25.3324H19.5548L20.9914 29.6473C21.0484 29.8237 21.1988 29.9533 21.3803 29.9896C21.4166 29.9948 21.4477 30 21.484 30H31.3378C32.1935 30 32.8936 29.2999 32.8936 28.4441V11.8484C32.8936 10.9927 32.1935 10.2926 31.3378 10.2926ZM9.55585 24.2952C9.27061 24.2952 9.03723 24.0618 9.03723 23.7766V7.18085C9.03723 6.89561 9.27061 6.66223 9.55585 6.66223H18.5331L24.881 24.2952H9.55585ZM20.6491 25.3324H24.4765L21.6915 28.4649L20.6491 25.3324ZM31.8564 28.4441C31.8564 28.7294 31.623 28.9628 31.3378 28.9628H22.6406L26.0219 25.1561H26.0168C26.0323 25.1406 26.0479 25.125 26.0582 25.1094C26.1568 24.9694 26.1775 24.7879 26.1153 24.6271L21.427 11.3298H31.3378C31.623 11.3298 31.8564 11.5632 31.8564 11.8484V28.4441Z" fill="white"/>
<path d="M24.4764 25.3324L21.6914 28.4649L20.649 25.3324H24.4764Z" fill="white"/>
<path d="M16.3871 17.5532H14.1259L13.6031 19.6276H12.1489L14.6196 11.8484H15.8871L18.3723 19.6276H16.9176L16.3871 17.5532ZM14.4537 16.5159H16.0619L15.2534 13.5526L14.4537 16.5159Z" fill="white"/>
</svg>
