<svg width="512" height="512" viewBox="0 0 512 512" fill="none" xmlns="http://www.w3.org/2000/svg">
<g filter="url(#filter0_bd_114_714)">
<mask id="path-1-inside-1_114_714" fill="white">
<path fill-rule="evenodd" clip-rule="evenodd" d="M298.5 311.997C298.666 311.999 298.833 312 299 312C322.748 312 342 292.748 342 269C342 245.252 322.748 226 299 226C298.833 226 298.666 226.001 298.5 226.003V226H287.391C287.793 223.057 288 220.053 288 217C288 180.549 258.451 151 222 151C185.549 151 156 180.549 156 217C156 220.439 156.263 223.817 156.77 227.115C153.631 226.386 150.361 226 147 226C123.252 226 104 245.252 104 269C104 292.748 123.252 312 147 312C147.168 312 147.335 311.999 147.502 311.997L147.5 312H298.5V311.997Z"/>
</mask>
<path fill-rule="evenodd" clip-rule="evenodd" d="M298.5 311.997C298.666 311.999 298.833 312 299 312C322.748 312 342 292.748 342 269C342 245.252 322.748 226 299 226C298.833 226 298.666 226.001 298.5 226.003V226H287.391C287.793 223.057 288 220.053 288 217C288 180.549 258.451 151 222 151C185.549 151 156 180.549 156 217C156 220.439 156.263 223.817 156.77 227.115C153.631 226.386 150.361 226 147 226C123.252 226 104 245.252 104 269C104 292.748 123.252 312 147 312C147.168 312 147.335 311.999 147.502 311.997L147.5 312H298.5V311.997Z" fill="url(#paint0_linear_114_714)" shape-rendering="crispEdges"/>
<path d="M298.5 311.997L298.523 309.997C297.988 309.991 297.474 310.199 297.094 310.575C296.714 310.951 296.5 311.463 296.5 311.997H298.5ZM298.5 226.003H296.5C296.5 226.537 296.714 227.049 297.094 227.425C297.474 227.801 297.988 228.009 298.523 228.003L298.5 226.003ZM298.5 226H300.5C300.5 224.895 299.605 224 298.5 224V226ZM287.391 226L285.41 225.73C285.332 226.302 285.505 226.88 285.885 227.315C286.265 227.75 286.814 228 287.391 228V226ZM156.77 227.115L156.318 229.063C156.964 229.213 157.643 229.033 158.13 228.582C158.617 228.13 158.848 227.467 158.747 226.811L156.77 227.115ZM147.502 311.997L149.072 313.237C149.549 312.632 149.637 311.807 149.297 311.115C148.957 310.423 148.25 309.988 147.479 309.997L147.502 311.997ZM147.5 312L145.931 310.76C145.455 311.362 145.366 312.182 145.7 312.872C146.034 313.562 146.733 314 147.5 314V312ZM298.5 312V314C299.605 314 300.5 313.105 300.5 312H298.5ZM298.477 313.997C298.651 313.999 298.825 314 299 314V310C298.841 310 298.682 309.999 298.523 309.997L298.477 313.997ZM299 314C323.853 314 344 293.853 344 269H340C340 291.644 321.644 310 299 310V314ZM344 269C344 244.147 323.853 224 299 224V228C321.644 228 340 246.356 340 269H344ZM299 224C298.826 224 298.651 224.001 298.477 224.003L298.523 228.003C298.682 228.001 298.841 228 299 228V224ZM296.5 226V226.003H300.5V226H296.5ZM287.391 228H298.5V224H287.391V228ZM289.373 226.27C289.787 223.238 290 220.143 290 217H286C286 219.962 285.799 222.876 285.41 225.73L289.373 226.27ZM290 217C290 179.445 259.555 149 222 149V153C257.346 153 286 181.654 286 217H290ZM222 149C184.445 149 154 179.445 154 217H158C158 181.654 186.654 153 222 153V149ZM154 217C154 220.542 154.271 224.021 154.793 227.419L158.747 226.811C158.255 223.614 158 220.337 158 217H154ZM157.223 225.167C153.937 224.403 150.514 224 147 224V228C150.207 228 153.326 228.368 156.318 229.063L157.223 225.167ZM147 224C122.147 224 102 244.147 102 269H106C106 246.356 124.356 228 147 228V224ZM102 269C102 293.853 122.147 314 147 314V310C124.356 310 106 291.644 106 269H102ZM147 314C147.175 314 147.35 313.999 147.525 313.997L147.479 309.997C147.32 309.999 147.16 310 147 310V314ZM149.069 313.24L149.072 313.237L145.933 310.757L145.931 310.76L149.069 313.24ZM298.5 310H147.5V314H298.5V310ZM296.5 311.997V312H300.5V311.997H296.5Z" fill="url(#paint1_linear_114_714)" mask="url(#path-1-inside-1_114_714)"/>
</g>
<g filter="url(#filter1_bd_114_714)">
<mask id="path-3-inside-2_114_714" fill="white">
<path fill-rule="evenodd" clip-rule="evenodd" d="M376.563 267.351C376.683 267.352 376.804 267.353 376.924 267.353C394.087 267.353 408 253.44 408 236.277C408 219.115 394.087 205.202 376.924 205.202C376.804 205.202 376.683 205.202 376.563 205.204V205.202H368.535C368.825 203.075 368.975 200.904 368.975 198.697C368.975 172.355 347.62 151 321.277 151C294.935 151 273.58 172.355 273.58 198.697C273.58 201.183 273.77 203.624 274.136 206.007C271.868 205.48 269.504 205.202 267.076 205.202C249.913 205.202 236 219.115 236 236.277C236 253.44 249.913 267.353 267.076 267.353C267.197 267.353 267.318 267.352 267.439 267.351L267.437 267.353H376.563V267.351Z"/>
</mask>
<path fill-rule="evenodd" clip-rule="evenodd" d="M376.563 267.351C376.683 267.352 376.804 267.353 376.924 267.353C394.087 267.353 408 253.44 408 236.277C408 219.115 394.087 205.202 376.924 205.202C376.804 205.202 376.683 205.202 376.563 205.204V205.202H368.535C368.825 203.075 368.975 200.904 368.975 198.697C368.975 172.355 347.62 151 321.277 151C294.935 151 273.58 172.355 273.58 198.697C273.58 201.183 273.77 203.624 274.136 206.007C271.868 205.48 269.504 205.202 267.076 205.202C249.913 205.202 236 219.115 236 236.277C236 253.44 249.913 267.353 267.076 267.353C267.197 267.353 267.318 267.352 267.439 267.351L267.437 267.353H376.563V267.351Z" fill="url(#paint2_linear_114_714)" shape-rendering="crispEdges"/>
<path d="M376.563 267.351L376.586 265.351C376.052 265.345 375.537 265.553 375.157 265.929C374.777 266.304 374.563 266.816 374.563 267.351H376.563ZM376.563 205.204H374.563C374.563 205.738 374.777 206.25 375.157 206.626C375.537 207.002 376.051 207.21 376.586 207.204L376.563 205.204ZM376.563 205.202H378.563C378.563 204.097 377.668 203.202 376.563 203.202V205.202ZM368.535 205.202L366.553 204.931C366.475 205.504 366.649 206.082 367.028 206.517C367.408 206.952 367.957 207.202 368.535 207.202V205.202ZM274.136 206.007L273.684 207.955C274.33 208.106 275.009 207.925 275.496 207.474C275.983 207.023 276.214 206.359 276.113 205.703L274.136 206.007ZM267.439 267.351L269.008 268.59C269.486 267.985 269.573 267.16 269.233 266.468C268.893 265.777 268.186 265.342 267.416 265.351L267.439 267.351ZM267.437 267.353L265.867 266.114C265.392 266.715 265.303 267.535 265.637 268.225C265.971 268.915 266.67 269.353 267.437 269.353V267.353ZM376.563 267.353V269.353C377.668 269.353 378.563 268.458 378.563 267.353H376.563ZM376.54 269.351C376.668 269.352 376.796 269.353 376.924 269.353V265.353C376.811 265.353 376.699 265.352 376.586 265.351L376.54 269.351ZM376.924 269.353C395.192 269.353 410 254.544 410 236.277H406C406 252.335 392.982 265.353 376.924 265.353V269.353ZM410 236.277C410 218.01 395.192 203.202 376.924 203.202V207.202C392.982 207.202 406 220.219 406 236.277H410ZM376.924 203.202C376.796 203.202 376.668 203.202 376.54 203.204L376.586 207.204C376.699 207.202 376.811 207.202 376.924 207.202V203.202ZM374.563 205.202V205.204H378.563V205.202H374.563ZM368.535 207.202H376.563V203.202H368.535V207.202ZM370.517 205.472C370.819 203.256 370.975 200.994 370.975 198.697H366.975C366.975 200.813 366.831 202.894 366.553 204.931L370.517 205.472ZM370.975 198.697C370.975 171.25 348.724 149 321.277 149V153C346.515 153 366.975 173.459 366.975 198.697H370.975ZM321.277 149C293.83 149 271.58 171.25 271.58 198.697H275.58C275.58 173.459 296.039 153 321.277 153V149ZM271.58 198.697C271.58 201.285 271.778 203.828 272.16 206.311L276.113 205.703C275.762 203.421 275.58 201.081 275.58 198.697H271.58ZM274.589 204.059C272.173 203.498 269.658 203.202 267.076 203.202V207.202C269.351 207.202 271.563 207.463 273.684 207.955L274.589 204.059ZM267.076 203.202C248.808 203.202 234 218.01 234 236.277H238C238 220.219 251.018 207.202 267.076 207.202V203.202ZM234 236.277C234 254.544 248.808 269.353 267.076 269.353V265.353C251.018 265.353 238 252.335 238 236.277H234ZM267.076 269.353C267.204 269.353 267.333 269.352 267.461 269.351L267.416 265.351C267.303 265.352 267.189 265.353 267.076 265.353V269.353ZM269.007 268.592L269.008 268.59L265.869 266.112L265.867 266.114L269.007 268.592ZM376.563 265.353H267.437V269.353H376.563V265.353ZM374.563 267.351V267.353H378.563V267.351H374.563Z" fill="url(#paint3_linear_114_714)" mask="url(#path-3-inside-2_114_714)"/>
</g>
<path d="M127 330.002C127 330.002 145.436 340.332 159.85 339.992C177.91 339.553 181.009 330.548 197.748 330.002C215.268 330.111 217.061 339.445 236.048 339.992C253.063 339.866 260.272 330.172 276.49 330.002C292.709 329.832 310 339.991 310 339.991" stroke="white" stroke-opacity="0.5" stroke-width="8" stroke-linecap="round"/>
<path d="M127 352.002C127 352.002 145.436 362.332 159.85 361.992C177.91 361.553 181.009 352.548 197.748 352.002C215.268 352.111 217.061 361.445 236.048 361.992C253.063 361.866 260.272 352.172 276.49 352.002C292.709 351.832 310 361.991 310 361.991" stroke="white" stroke-opacity="0.5" stroke-width="8" stroke-linecap="round"/>
<defs>
<filter id="filter0_bd_114_714" x="33" y="116" width="338" height="261" filterUnits="userSpaceOnUse" color-interpolation-filters="sRGB">
<feFlood flood-opacity="0" result="BackgroundImageFix"/>
<feGaussianBlur in="BackgroundImageFix" stdDeviation="7"/>
<feComposite in2="SourceAlpha" operator="in" result="effect1_backgroundBlur_114_714"/>
<feColorMatrix in="SourceAlpha" type="matrix" values="0 0 0 0 0 0 0 0 0 0 0 0 0 0 0 0 0 0 127 0" result="hardAlpha"/>
<feOffset dx="-21" dy="15"/>
<feGaussianBlur stdDeviation="25"/>
<feComposite in2="hardAlpha" operator="out"/>
<feColorMatrix type="matrix" values="0 0 0 0 0.113725 0 0 0 0 0.14902 0 0 0 0 0.27451 0 0 0 0.25 0"/>
<feBlend mode="normal" in2="effect1_backgroundBlur_114_714" result="effect2_dropShadow_114_714"/>
<feBlend mode="normal" in="SourceGraphic" in2="effect2_dropShadow_114_714" result="shape"/>
</filter>
<filter id="filter1_bd_114_714" x="165" y="116" width="272" height="216.353" filterUnits="userSpaceOnUse" color-interpolation-filters="sRGB">
<feFlood flood-opacity="0" result="BackgroundImageFix"/>
<feGaussianBlur in="BackgroundImageFix" stdDeviation="7"/>
<feComposite in2="SourceAlpha" operator="in" result="effect1_backgroundBlur_114_714"/>
<feColorMatrix in="SourceAlpha" type="matrix" values="0 0 0 0 0 0 0 0 0 0 0 0 0 0 0 0 0 0 127 0" result="hardAlpha"/>
<feOffset dx="-21" dy="15"/>
<feGaussianBlur stdDeviation="25"/>
<feComposite in2="hardAlpha" operator="out"/>
<feColorMatrix type="matrix" values="0 0 0 0 0.113438 0 0 0 0 0.148981 0 0 0 0 0.275 0 0 0 0.25 0"/>
<feBlend mode="normal" in2="effect1_backgroundBlur_114_714" result="effect2_dropShadow_114_714"/>
<feBlend mode="normal" in="SourceGraphic" in2="effect2_dropShadow_114_714" result="shape"/>
</filter>
<linearGradient id="paint0_linear_114_714" x1="223" y1="99.5" x2="223" y2="334.5" gradientUnits="userSpaceOnUse">
<stop stop-color="white"/>
<stop offset="1" stop-color="white" stop-opacity="0"/>
</linearGradient>
<linearGradient id="paint1_linear_114_714" x1="223" y1="151" x2="223" y2="312" gradientUnits="userSpaceOnUse">
<stop stop-color="white"/>
<stop offset="1" stop-color="white" stop-opacity="0"/>
</linearGradient>
<linearGradient id="paint2_linear_114_714" x1="330" y1="154.5" x2="330" y2="280.5" gradientUnits="userSpaceOnUse">
<stop stop-color="white"/>
<stop offset="1" stop-color="white" stop-opacity="0"/>
</linearGradient>
<linearGradient id="paint3_linear_114_714" x1="322" y1="151" x2="322" y2="267.353" gradientUnits="userSpaceOnUse">
<stop stop-color="white"/>
<stop offset="1" stop-color="white" stop-opacity="0"/>
</linearGradient>
</defs>
</svg>
