<svg width="512" height="512" viewBox="0 0 512 512" fill="none" xmlns="http://www.w3.org/2000/svg">
<g filter="url(#filter0_bdd_114_106)">
<path d="M180.617 306.541L228.431 219.041C228.782 218.399 229.455 218 230.186 218H277.195C278.698 218 279.664 219.596 278.966 220.928L249.034 278.072C248.336 279.404 249.302 281 250.805 281H287.527C289.256 281 290.17 283.045 289.017 284.334L188.581 396.585C187.107 398.233 184.443 396.623 185.217 394.552L215.991 312.2C216.479 310.893 215.513 309.5 214.118 309.5H182.372C180.853 309.5 179.889 307.874 180.617 306.541Z" fill="url(#paint0_linear_114_106)"/>
<path d="M181.494 307.02L229.309 219.52C229.484 219.2 229.821 219 230.186 219H277.195C277.946 219 278.429 219.798 278.08 220.464L248.148 277.608C247.102 279.605 248.55 282 250.805 282H287.527C288.391 282 288.848 283.023 288.272 283.667L187.836 395.919C187.099 396.743 185.767 395.938 186.154 394.902L216.928 312.55C217.66 310.589 216.211 308.5 214.118 308.5H182.372C181.613 308.5 181.13 307.687 181.494 307.02Z" stroke="url(#paint1_linear_114_106)" stroke-width="2"/>
</g>
<g filter="url(#filter1_bd_114_106)">
<mask id="path-3-inside-1_114_106" fill="white">
<path fill-rule="evenodd" clip-rule="evenodd" d="M298.5 268.997C298.666 268.999 298.833 269 299 269C322.748 269 342 249.748 342 226C342 202.252 322.748 183 299 183C298.833 183 298.666 183.001 298.5 183.003V183H287.391C287.793 180.057 288 177.053 288 174C288 137.549 258.451 108 222 108C185.549 108 156 137.549 156 174C156 177.439 156.263 180.817 156.77 184.115C153.631 183.386 150.361 183 147 183C123.252 183 104 202.252 104 226C104 249.748 123.252 269 147 269C147.168 269 147.335 268.999 147.502 268.997L147.5 269H298.5V268.997Z"/>
</mask>
<path fill-rule="evenodd" clip-rule="evenodd" d="M298.5 268.997C298.666 268.999 298.833 269 299 269C322.748 269 342 249.748 342 226C342 202.252 322.748 183 299 183C298.833 183 298.666 183.001 298.5 183.003V183H287.391C287.793 180.057 288 177.053 288 174C288 137.549 258.451 108 222 108C185.549 108 156 137.549 156 174C156 177.439 156.263 180.817 156.77 184.115C153.631 183.386 150.361 183 147 183C123.252 183 104 202.252 104 226C104 249.748 123.252 269 147 269C147.168 269 147.335 268.999 147.502 268.997L147.5 269H298.5V268.997Z" fill="url(#paint2_linear_114_106)" shape-rendering="crispEdges"/>
<path d="M298.5 268.997L298.523 266.997C297.988 266.991 297.474 267.199 297.094 267.575C296.714 267.951 296.5 268.463 296.5 268.997H298.5ZM298.5 183.003H296.5C296.5 183.537 296.714 184.049 297.094 184.425C297.474 184.801 297.988 185.009 298.523 185.003L298.5 183.003ZM298.5 183H300.5C300.5 181.895 299.605 181 298.5 181V183ZM287.391 183L285.41 182.73C285.332 183.302 285.505 183.88 285.885 184.315C286.265 184.75 286.814 185 287.391 185V183ZM156.77 184.115L156.318 186.063C156.964 186.213 157.643 186.033 158.13 185.582C158.617 185.13 158.848 184.467 158.747 183.811L156.77 184.115ZM147.502 268.997L149.072 270.237C149.549 269.632 149.637 268.807 149.297 268.115C148.957 267.423 148.25 266.988 147.479 266.997L147.502 268.997ZM147.5 269L145.931 267.76C145.455 268.362 145.366 269.182 145.7 269.872C146.034 270.562 146.733 271 147.5 271V269ZM298.5 269V271C299.605 271 300.5 270.105 300.5 269H298.5ZM298.477 270.997C298.651 270.999 298.825 271 299 271V267C298.841 267 298.682 266.999 298.523 266.997L298.477 270.997ZM299 271C323.853 271 344 250.853 344 226H340C340 248.644 321.644 267 299 267V271ZM344 226C344 201.147 323.853 181 299 181V185C321.644 185 340 203.356 340 226H344ZM299 181C298.826 181 298.651 181.001 298.477 181.003L298.523 185.003C298.682 185.001 298.841 185 299 185V181ZM296.5 183V183.003H300.5V183H296.5ZM287.391 185H298.5V181H287.391V185ZM289.373 183.27C289.787 180.238 290 177.143 290 174H286C286 176.962 285.799 179.876 285.41 182.73L289.373 183.27ZM290 174C290 136.445 259.555 106 222 106V110C257.346 110 286 138.654 286 174H290ZM222 106C184.445 106 154 136.445 154 174H158C158 138.654 186.654 110 222 110V106ZM154 174C154 177.542 154.271 181.021 154.793 184.419L158.747 183.811C158.255 180.614 158 177.337 158 174H154ZM157.223 182.167C153.937 181.403 150.514 181 147 181V185C150.207 185 153.326 185.368 156.318 186.063L157.223 182.167ZM147 181C122.147 181 102 201.147 102 226H106C106 203.356 124.356 185 147 185V181ZM102 226C102 250.853 122.147 271 147 271V267C124.356 267 106 248.644 106 226H102ZM147 271C147.175 271 147.35 270.999 147.525 270.997L147.479 266.997C147.32 266.999 147.16 267 147 267V271ZM149.069 270.24L149.072 270.237L145.933 267.757L145.931 267.76L149.069 270.24ZM298.5 267H147.5V271H298.5V267ZM296.5 268.997V269H300.5V268.997H296.5Z" fill="url(#paint3_linear_114_106)" mask="url(#path-3-inside-1_114_106)"/>
</g>
<g filter="url(#filter2_bd_114_106)">
<mask id="path-5-inside-2_114_106" fill="white">
<path fill-rule="evenodd" clip-rule="evenodd" d="M376.563 224.351C376.683 224.352 376.804 224.353 376.924 224.353C394.087 224.353 408 210.44 408 193.277C408 176.115 394.087 162.202 376.924 162.202C376.804 162.202 376.683 162.202 376.563 162.204V162.202H368.535C368.825 160.075 368.975 157.904 368.975 155.697C368.975 129.355 347.62 108 321.277 108C294.935 108 273.58 129.355 273.58 155.697C273.58 158.183 273.77 160.624 274.136 163.007C271.868 162.48 269.504 162.202 267.076 162.202C249.913 162.202 236 176.115 236 193.277C236 210.44 249.913 224.353 267.076 224.353C267.197 224.353 267.318 224.352 267.439 224.351L267.437 224.353H376.563V224.351Z"/>
</mask>
<path fill-rule="evenodd" clip-rule="evenodd" d="M376.563 224.351C376.683 224.352 376.804 224.353 376.924 224.353C394.087 224.353 408 210.44 408 193.277C408 176.115 394.087 162.202 376.924 162.202C376.804 162.202 376.683 162.202 376.563 162.204V162.202H368.535C368.825 160.075 368.975 157.904 368.975 155.697C368.975 129.355 347.62 108 321.277 108C294.935 108 273.58 129.355 273.58 155.697C273.58 158.183 273.77 160.624 274.136 163.007C271.868 162.48 269.504 162.202 267.076 162.202C249.913 162.202 236 176.115 236 193.277C236 210.44 249.913 224.353 267.076 224.353C267.197 224.353 267.318 224.352 267.439 224.351L267.437 224.353H376.563V224.351Z" fill="url(#paint4_linear_114_106)" shape-rendering="crispEdges"/>
<path d="M376.563 224.351L376.586 222.351C376.052 222.345 375.537 222.553 375.157 222.929C374.777 223.304 374.563 223.816 374.563 224.351H376.563ZM376.563 162.204H374.563C374.563 162.738 374.777 163.25 375.157 163.626C375.537 164.002 376.051 164.21 376.586 164.204L376.563 162.204ZM376.563 162.202H378.563C378.563 161.097 377.668 160.202 376.563 160.202V162.202ZM368.535 162.202L366.553 161.931C366.475 162.504 366.649 163.082 367.028 163.517C367.408 163.952 367.957 164.202 368.535 164.202V162.202ZM274.136 163.007L273.684 164.955C274.33 165.106 275.009 164.925 275.496 164.474C275.983 164.023 276.214 163.359 276.113 162.703L274.136 163.007ZM267.439 224.351L269.008 225.59C269.486 224.985 269.573 224.16 269.233 223.468C268.893 222.777 268.186 222.342 267.416 222.351L267.439 224.351ZM267.437 224.353L265.867 223.114C265.392 223.715 265.303 224.535 265.637 225.225C265.971 225.915 266.67 226.353 267.437 226.353V224.353ZM376.563 224.353V226.353C377.668 226.353 378.563 225.458 378.563 224.353H376.563ZM376.54 226.351C376.668 226.352 376.796 226.353 376.924 226.353V222.353C376.811 222.353 376.699 222.352 376.586 222.351L376.54 226.351ZM376.924 226.353C395.192 226.353 410 211.544 410 193.277H406C406 209.335 392.982 222.353 376.924 222.353V226.353ZM410 193.277C410 175.01 395.192 160.202 376.924 160.202V164.202C392.982 164.202 406 177.219 406 193.277H410ZM376.924 160.202C376.796 160.202 376.668 160.202 376.54 160.204L376.586 164.204C376.699 164.202 376.811 164.202 376.924 164.202V160.202ZM374.563 162.202V162.204H378.563V162.202H374.563ZM368.535 164.202H376.563V160.202H368.535V164.202ZM370.517 162.472C370.819 160.256 370.975 157.994 370.975 155.697H366.975C366.975 157.813 366.831 159.894 366.553 161.931L370.517 162.472ZM370.975 155.697C370.975 128.25 348.724 106 321.277 106V110C346.515 110 366.975 130.459 366.975 155.697H370.975ZM321.277 106C293.83 106 271.58 128.25 271.58 155.697H275.58C275.58 130.459 296.039 110 321.277 110V106ZM271.58 155.697C271.58 158.285 271.778 160.828 272.16 163.311L276.113 162.703C275.762 160.421 275.58 158.081 275.58 155.697H271.58ZM274.589 161.059C272.173 160.498 269.658 160.202 267.076 160.202V164.202C269.351 164.202 271.563 164.463 273.684 164.955L274.589 161.059ZM267.076 160.202C248.808 160.202 234 175.01 234 193.277H238C238 177.219 251.018 164.202 267.076 164.202V160.202ZM234 193.277C234 211.544 248.808 226.353 267.076 226.353V222.353C251.018 222.353 238 209.335 238 193.277H234ZM267.076 226.353C267.204 226.353 267.333 226.352 267.461 226.351L267.416 222.351C267.303 222.352 267.189 222.353 267.076 222.353V226.353ZM269.007 225.592L269.008 225.59L265.869 223.112L265.867 223.114L269.007 225.592ZM376.563 222.353H267.437V226.353H376.563V222.353ZM374.563 224.351V224.353H378.563V224.351H374.563Z" fill="url(#paint5_linear_114_106)" mask="url(#path-5-inside-2_114_106)"/>
</g>
<defs>
<filter id="filter0_bdd_114_106" x="109.369" y="157" width="241.162" height="305.265" filterUnits="userSpaceOnUse" color-interpolation-filters="sRGB">
<feFlood flood-opacity="0" result="BackgroundImageFix"/>
<feGaussianBlur in="BackgroundImageFix" stdDeviation="7"/>
<feComposite in2="SourceAlpha" operator="in" result="effect1_backgroundBlur_114_106"/>
<feColorMatrix in="SourceAlpha" type="matrix" values="0 0 0 0 0 0 0 0 0 0 0 0 0 0 0 0 0 0 127 0" result="hardAlpha"/>
<feOffset dx="-21" dy="15"/>
<feGaussianBlur stdDeviation="25"/>
<feComposite in2="hardAlpha" operator="out"/>
<feColorMatrix type="matrix" values="0 0 0 0 0.113438 0 0 0 0 0.148981 0 0 0 0 0.275 0 0 0 0.25 0"/>
<feBlend mode="normal" in2="effect1_backgroundBlur_114_106" result="effect2_dropShadow_114_106"/>
<feColorMatrix in="SourceAlpha" type="matrix" values="0 0 0 0 0 0 0 0 0 0 0 0 0 0 0 0 0 0 127 0" result="hardAlpha"/>
<feOffset/>
<feGaussianBlur stdDeviation="30.5"/>
<feComposite in2="hardAlpha" operator="out"/>
<feColorMatrix type="matrix" values="0 0 0 0 1 0 0 0 0 0.721569 0 0 0 0 0.00392157 0 0 0 0.49 0"/>
<feBlend mode="normal" in2="effect2_dropShadow_114_106" result="effect3_dropShadow_114_106"/>
<feBlend mode="normal" in="SourceGraphic" in2="effect3_dropShadow_114_106" result="shape"/>
</filter>
<filter id="filter1_bd_114_106" x="33" y="73" width="338" height="261" filterUnits="userSpaceOnUse" color-interpolation-filters="sRGB">
<feFlood flood-opacity="0" result="BackgroundImageFix"/>
<feGaussianBlur in="BackgroundImageFix" stdDeviation="7"/>
<feComposite in2="SourceAlpha" operator="in" result="effect1_backgroundBlur_114_106"/>
<feColorMatrix in="SourceAlpha" type="matrix" values="0 0 0 0 0 0 0 0 0 0 0 0 0 0 0 0 0 0 127 0" result="hardAlpha"/>
<feOffset dx="-21" dy="15"/>
<feGaussianBlur stdDeviation="25"/>
<feComposite in2="hardAlpha" operator="out"/>
<feColorMatrix type="matrix" values="0 0 0 0 0.113725 0 0 0 0 0.14902 0 0 0 0 0.27451 0 0 0 0.25 0"/>
<feBlend mode="normal" in2="effect1_backgroundBlur_114_106" result="effect2_dropShadow_114_106"/>
<feBlend mode="normal" in="SourceGraphic" in2="effect2_dropShadow_114_106" result="shape"/>
</filter>
<filter id="filter2_bd_114_106" x="165" y="73" width="272" height="216.353" filterUnits="userSpaceOnUse" color-interpolation-filters="sRGB">
<feFlood flood-opacity="0" result="BackgroundImageFix"/>
<feGaussianBlur in="BackgroundImageFix" stdDeviation="7"/>
<feComposite in2="SourceAlpha" operator="in" result="effect1_backgroundBlur_114_106"/>
<feColorMatrix in="SourceAlpha" type="matrix" values="0 0 0 0 0 0 0 0 0 0 0 0 0 0 0 0 0 0 127 0" result="hardAlpha"/>
<feOffset dx="-21" dy="15"/>
<feGaussianBlur stdDeviation="25"/>
<feComposite in2="hardAlpha" operator="out"/>
<feColorMatrix type="matrix" values="0 0 0 0 0.113438 0 0 0 0 0.148981 0 0 0 0 0.275 0 0 0 0.25 0"/>
<feBlend mode="normal" in2="effect1_backgroundBlur_114_106" result="effect2_dropShadow_114_106"/>
<feBlend mode="normal" in="SourceGraphic" in2="effect2_dropShadow_114_106" result="shape"/>
</filter>
<linearGradient id="paint0_linear_114_106" x1="246.5" y1="229" x2="221.5" y2="337.5" gradientUnits="userSpaceOnUse">
<stop stop-color="#FF4D00"/>
<stop offset="1" stop-color="#FFB800"/>
</linearGradient>
<linearGradient id="paint1_linear_114_106" x1="213" y1="336" x2="258.5" y2="238.5" gradientUnits="userSpaceOnUse">
<stop stop-color="white"/>
<stop offset="1" stop-color="white" stop-opacity="0"/>
</linearGradient>
<linearGradient id="paint2_linear_114_106" x1="223" y1="56.5" x2="223" y2="291.5" gradientUnits="userSpaceOnUse">
<stop stop-color="white"/>
<stop offset="1" stop-color="white" stop-opacity="0"/>
</linearGradient>
<linearGradient id="paint3_linear_114_106" x1="223" y1="108" x2="223" y2="269" gradientUnits="userSpaceOnUse">
<stop stop-color="white"/>
<stop offset="1" stop-color="white" stop-opacity="0"/>
</linearGradient>
<linearGradient id="paint4_linear_114_106" x1="330" y1="111.5" x2="330" y2="237.5" gradientUnits="userSpaceOnUse">
<stop stop-color="white"/>
<stop offset="1" stop-color="white" stop-opacity="0"/>
</linearGradient>
<linearGradient id="paint5_linear_114_106" x1="322" y1="108" x2="322" y2="224.353" gradientUnits="userSpaceOnUse">
<stop stop-color="white"/>
<stop offset="1" stop-color="white" stop-opacity="0"/>
</linearGradient>
</defs>
</svg>
