<svg width="512" height="512" viewBox="0 0 512 512" fill="none" xmlns="http://www.w3.org/2000/svg">
<g filter="url(#filter0_bd_114_50)">
<mask id="path-1-inside-1_114_50" fill="white">
<path fill-rule="evenodd" clip-rule="evenodd" d="M224.563 217.351C224.683 217.352 224.804 217.353 224.924 217.353C242.087 217.353 256 203.44 256 186.277C256 169.115 242.087 155.202 224.924 155.202C224.804 155.202 224.683 155.202 224.563 155.204V155.202H216.535C216.825 153.075 216.975 150.904 216.975 148.697C216.975 122.355 195.62 101 169.277 101C142.935 101 121.58 122.355 121.58 148.697C121.58 151.183 121.77 153.624 122.136 156.007C119.868 155.48 117.504 155.202 115.076 155.202C97.913 155.202 84 169.115 84 186.277C84 203.44 97.913 217.353 115.076 217.353C115.197 217.353 115.318 217.352 115.439 217.351L115.437 217.353H224.563V217.351Z"/>
</mask>
<path fill-rule="evenodd" clip-rule="evenodd" d="M224.563 217.351C224.683 217.352 224.804 217.353 224.924 217.353C242.087 217.353 256 203.44 256 186.277C256 169.115 242.087 155.202 224.924 155.202C224.804 155.202 224.683 155.202 224.563 155.204V155.202H216.535C216.825 153.075 216.975 150.904 216.975 148.697C216.975 122.355 195.62 101 169.277 101C142.935 101 121.58 122.355 121.58 148.697C121.58 151.183 121.77 153.624 122.136 156.007C119.868 155.48 117.504 155.202 115.076 155.202C97.913 155.202 84 169.115 84 186.277C84 203.44 97.913 217.353 115.076 217.353C115.197 217.353 115.318 217.352 115.439 217.351L115.437 217.353H224.563V217.351Z" fill="url(#paint0_linear_114_50)" shape-rendering="crispEdges"/>
<path d="M224.563 217.351L224.586 215.351C224.052 215.345 223.537 215.553 223.157 215.929C222.777 216.304 222.563 216.816 222.563 217.351H224.563ZM224.563 155.204H222.563C222.563 155.738 222.777 156.25 223.157 156.626C223.537 157.002 224.051 157.21 224.586 157.204L224.563 155.204ZM224.563 155.202H226.563C226.563 154.097 225.668 153.202 224.563 153.202V155.202ZM216.535 155.202L214.553 154.931C214.475 155.504 214.649 156.082 215.028 156.517C215.408 156.952 215.957 157.202 216.535 157.202V155.202ZM122.136 156.007L121.684 157.955C122.33 158.106 123.009 157.925 123.496 157.474C123.983 157.023 124.214 156.359 124.113 155.703L122.136 156.007ZM115.439 217.351L117.008 218.59C117.486 217.985 117.573 217.16 117.233 216.468C116.893 215.777 116.186 215.342 115.416 215.351L115.439 217.351ZM115.437 217.353L113.867 216.114C113.392 216.715 113.303 217.535 113.637 218.225C113.971 218.915 114.67 219.353 115.437 219.353V217.353ZM224.563 217.353V219.353C225.668 219.353 226.563 218.458 226.563 217.353H224.563ZM224.54 219.351C224.668 219.352 224.796 219.353 224.924 219.353V215.353C224.811 215.353 224.699 215.352 224.586 215.351L224.54 219.351ZM224.924 219.353C243.192 219.353 258 204.544 258 186.277H254C254 202.335 240.982 215.353 224.924 215.353V219.353ZM258 186.277C258 168.01 243.192 153.202 224.924 153.202V157.202C240.982 157.202 254 170.219 254 186.277H258ZM224.924 153.202C224.796 153.202 224.668 153.202 224.54 153.204L224.586 157.204C224.699 157.202 224.811 157.202 224.924 157.202V153.202ZM222.563 155.202V155.204H226.563V155.202H222.563ZM216.535 157.202H224.563V153.202H216.535V157.202ZM218.517 155.472C218.819 153.256 218.975 150.994 218.975 148.697H214.975C214.975 150.813 214.831 152.894 214.553 154.931L218.517 155.472ZM218.975 148.697C218.975 121.25 196.724 99 169.277 99V103C194.515 103 214.975 123.459 214.975 148.697H218.975ZM169.277 99C141.83 99 119.58 121.25 119.58 148.697H123.58C123.58 123.459 144.039 103 169.277 103V99ZM119.58 148.697C119.58 151.285 119.778 153.828 120.16 156.311L124.113 155.703C123.762 153.421 123.58 151.081 123.58 148.697H119.58ZM122.589 154.059C120.173 153.498 117.658 153.202 115.076 153.202V157.202C117.351 157.202 119.563 157.463 121.684 157.955L122.589 154.059ZM115.076 153.202C96.8085 153.202 82 168.01 82 186.277H86C86 170.219 99.0176 157.202 115.076 157.202V153.202ZM82 186.277C82 204.544 96.8085 219.353 115.076 219.353V215.353C99.0176 215.353 86 202.335 86 186.277H82ZM115.076 219.353C115.204 219.353 115.333 219.352 115.461 219.351L115.416 215.351C115.303 215.352 115.189 215.353 115.076 215.353V219.353ZM117.007 218.592L117.008 218.59L113.869 216.112L113.867 216.114L117.007 218.592ZM224.563 215.353H115.437V219.353H224.563V215.353ZM222.563 217.351V217.353H226.563V217.351H222.563Z" fill="url(#paint1_linear_114_50)" mask="url(#path-1-inside-1_114_50)"/>
</g>
<g filter="url(#filter1_bd_114_50)">
<mask id="path-3-inside-2_114_50" fill="white">
<path fill-rule="evenodd" clip-rule="evenodd" d="M318.5 296.997C318.666 296.999 318.833 297 319 297C342.748 297 362 277.748 362 254C362 230.252 342.748 211 319 211C318.833 211 318.666 211.001 318.5 211.003V211H307.391C307.793 208.057 308 205.053 308 202C308 165.549 278.451 136 242 136C205.549 136 176 165.549 176 202C176 205.439 176.263 208.817 176.77 212.115C173.631 211.386 170.361 211 167 211C143.252 211 124 230.252 124 254C124 277.748 143.252 297 167 297C167.168 297 167.335 296.999 167.502 296.997L167.5 297H318.5V296.997Z"/>
</mask>
<path fill-rule="evenodd" clip-rule="evenodd" d="M318.5 296.997C318.666 296.999 318.833 297 319 297C342.748 297 362 277.748 362 254C362 230.252 342.748 211 319 211C318.833 211 318.666 211.001 318.5 211.003V211H307.391C307.793 208.057 308 205.053 308 202C308 165.549 278.451 136 242 136C205.549 136 176 165.549 176 202C176 205.439 176.263 208.817 176.77 212.115C173.631 211.386 170.361 211 167 211C143.252 211 124 230.252 124 254C124 277.748 143.252 297 167 297C167.168 297 167.335 296.999 167.502 296.997L167.5 297H318.5V296.997Z" fill="url(#paint2_linear_114_50)" shape-rendering="crispEdges"/>
<path d="M318.5 296.997L318.523 294.997C317.988 294.991 317.474 295.199 317.094 295.575C316.714 295.951 316.5 296.463 316.5 296.997H318.5ZM318.5 211.003H316.5C316.5 211.537 316.714 212.049 317.094 212.425C317.474 212.801 317.988 213.009 318.523 213.003L318.5 211.003ZM318.5 211H320.5C320.5 209.895 319.605 209 318.5 209V211ZM307.391 211L305.41 210.73C305.332 211.302 305.505 211.88 305.885 212.315C306.265 212.75 306.814 213 307.391 213V211ZM176.77 212.115L176.318 214.063C176.964 214.213 177.643 214.033 178.13 213.582C178.617 213.13 178.848 212.467 178.747 211.811L176.77 212.115ZM167.502 296.997L169.072 298.237C169.549 297.632 169.637 296.807 169.297 296.115C168.957 295.423 168.25 294.988 167.479 294.997L167.502 296.997ZM167.5 297L165.931 295.76C165.455 296.362 165.366 297.182 165.7 297.872C166.034 298.562 166.733 299 167.5 299V297ZM318.5 297V299C319.605 299 320.5 298.105 320.5 297H318.5ZM318.477 298.997C318.651 298.999 318.825 299 319 299V295C318.841 295 318.682 294.999 318.523 294.997L318.477 298.997ZM319 299C343.853 299 364 278.853 364 254H360C360 276.644 341.644 295 319 295V299ZM364 254C364 229.147 343.853 209 319 209V213C341.644 213 360 231.356 360 254H364ZM319 209C318.826 209 318.651 209.001 318.477 209.003L318.523 213.003C318.682 213.001 318.841 213 319 213V209ZM316.5 211V211.003H320.5V211H316.5ZM307.391 213H318.5V209H307.391V213ZM309.373 211.27C309.787 208.238 310 205.143 310 202H306C306 204.962 305.799 207.876 305.41 210.73L309.373 211.27ZM310 202C310 164.445 279.555 134 242 134V138C277.346 138 306 166.654 306 202H310ZM242 134C204.445 134 174 164.445 174 202H178C178 166.654 206.654 138 242 138V134ZM174 202C174 205.542 174.271 209.021 174.793 212.419L178.747 211.811C178.255 208.614 178 205.337 178 202H174ZM177.223 210.167C173.937 209.403 170.514 209 167 209V213C170.207 213 173.326 213.368 176.318 214.063L177.223 210.167ZM167 209C142.147 209 122 229.147 122 254H126C126 231.356 144.356 213 167 213V209ZM122 254C122 278.853 142.147 299 167 299V295C144.356 295 126 276.644 126 254H122ZM167 299C167.175 299 167.35 298.999 167.525 298.997L167.479 294.997C167.32 294.999 167.16 295 167 295V299ZM169.069 298.24L169.072 298.237L165.933 295.757L165.931 295.76L169.069 298.24ZM318.5 295H167.5V299H318.5V295ZM316.5 296.997V297H320.5V296.997H316.5Z" fill="url(#paint3_linear_114_50)" mask="url(#path-3-inside-2_114_50)"/>
</g>
<g filter="url(#filter2_bdd_114_50)">
<path d="M286.617 312.541L334.431 225.041C334.782 224.399 335.455 224 336.186 224H383.195C384.698 224 385.664 225.596 384.966 226.928L355.034 284.072C354.336 285.404 355.302 287 356.805 287H393.527C395.256 287 396.17 289.045 395.017 290.334L294.581 402.585C293.107 404.233 290.443 402.623 291.217 400.552L321.991 318.2C322.479 316.893 321.513 315.5 320.118 315.5H288.372C286.853 315.5 285.889 313.874 286.617 312.541Z" fill="url(#paint4_linear_114_50)"/>
<path d="M287.494 313.02L335.309 225.52C335.484 225.2 335.821 225 336.186 225H383.195C383.946 225 384.429 225.798 384.08 226.464L354.148 283.608C353.102 285.605 354.55 288 356.805 288H393.527C394.391 288 394.848 289.023 394.272 289.667L293.836 401.919C293.099 402.743 291.767 401.938 292.154 400.902L322.928 318.55C323.66 316.589 322.211 314.5 320.118 314.5H288.372C287.613 314.5 287.13 313.687 287.494 313.02Z" stroke="url(#paint5_linear_114_50)" stroke-width="2"/>
</g>
<g filter="url(#filter3_bd_114_50)">
<mask id="path-7-inside-3_114_50" fill="white">
<path fill-rule="evenodd" clip-rule="evenodd" d="M396.563 252.351C396.683 252.352 396.804 252.353 396.924 252.353C414.087 252.353 428 238.44 428 221.277C428 204.115 414.087 190.202 396.924 190.202C396.804 190.202 396.683 190.202 396.563 190.204V190.202H388.535C388.825 188.075 388.975 185.904 388.975 183.697C388.975 157.355 367.62 136 341.277 136C314.935 136 293.58 157.355 293.58 183.697C293.58 186.183 293.77 188.624 294.136 191.007C291.868 190.48 289.504 190.202 287.076 190.202C269.913 190.202 256 204.115 256 221.277C256 238.44 269.913 252.353 287.076 252.353C287.197 252.353 287.318 252.352 287.439 252.351L287.437 252.353H396.563V252.351Z"/>
</mask>
<path fill-rule="evenodd" clip-rule="evenodd" d="M396.563 252.351C396.683 252.352 396.804 252.353 396.924 252.353C414.087 252.353 428 238.44 428 221.277C428 204.115 414.087 190.202 396.924 190.202C396.804 190.202 396.683 190.202 396.563 190.204V190.202H388.535C388.825 188.075 388.975 185.904 388.975 183.697C388.975 157.355 367.62 136 341.277 136C314.935 136 293.58 157.355 293.58 183.697C293.58 186.183 293.77 188.624 294.136 191.007C291.868 190.48 289.504 190.202 287.076 190.202C269.913 190.202 256 204.115 256 221.277C256 238.44 269.913 252.353 287.076 252.353C287.197 252.353 287.318 252.352 287.439 252.351L287.437 252.353H396.563V252.351Z" fill="url(#paint6_linear_114_50)" shape-rendering="crispEdges"/>
<path d="M396.563 252.351L396.586 250.351C396.052 250.345 395.537 250.553 395.157 250.929C394.777 251.304 394.563 251.816 394.563 252.351H396.563ZM396.563 190.204H394.563C394.563 190.738 394.777 191.25 395.157 191.626C395.537 192.002 396.051 192.21 396.586 192.204L396.563 190.204ZM396.563 190.202H398.563C398.563 189.097 397.668 188.202 396.563 188.202V190.202ZM388.535 190.202L386.553 189.931C386.475 190.504 386.649 191.082 387.028 191.517C387.408 191.952 387.957 192.202 388.535 192.202V190.202ZM294.136 191.007L293.684 192.955C294.33 193.106 295.009 192.925 295.496 192.474C295.983 192.023 296.214 191.359 296.113 190.703L294.136 191.007ZM287.439 252.351L289.008 253.59C289.486 252.985 289.573 252.16 289.233 251.468C288.893 250.777 288.186 250.342 287.416 250.351L287.439 252.351ZM287.437 252.353L285.867 251.114C285.392 251.715 285.303 252.535 285.637 253.225C285.971 253.915 286.67 254.353 287.437 254.353V252.353ZM396.563 252.353V254.353C397.668 254.353 398.563 253.458 398.563 252.353H396.563ZM396.54 254.351C396.668 254.352 396.796 254.353 396.924 254.353V250.353C396.811 250.353 396.699 250.352 396.586 250.351L396.54 254.351ZM396.924 254.353C415.192 254.353 430 239.544 430 221.277H426C426 237.335 412.982 250.353 396.924 250.353V254.353ZM430 221.277C430 203.01 415.192 188.202 396.924 188.202V192.202C412.982 192.202 426 205.219 426 221.277H430ZM396.924 188.202C396.796 188.202 396.668 188.202 396.54 188.204L396.586 192.204C396.699 192.202 396.811 192.202 396.924 192.202V188.202ZM394.563 190.202V190.204H398.563V190.202H394.563ZM388.535 192.202H396.563V188.202H388.535V192.202ZM390.517 190.472C390.819 188.256 390.975 185.994 390.975 183.697H386.975C386.975 185.813 386.831 187.894 386.553 189.931L390.517 190.472ZM390.975 183.697C390.975 156.25 368.724 134 341.277 134V138C366.515 138 386.975 158.459 386.975 183.697H390.975ZM341.277 134C313.83 134 291.58 156.25 291.58 183.697H295.58C295.58 158.459 316.039 138 341.277 138V134ZM291.58 183.697C291.58 186.285 291.778 188.828 292.16 191.311L296.113 190.703C295.762 188.421 295.58 186.081 295.58 183.697H291.58ZM294.589 189.059C292.173 188.498 289.658 188.202 287.076 188.202V192.202C289.351 192.202 291.563 192.463 293.684 192.955L294.589 189.059ZM287.076 188.202C268.808 188.202 254 203.01 254 221.277H258C258 205.219 271.018 192.202 287.076 192.202V188.202ZM254 221.277C254 239.544 268.808 254.353 287.076 254.353V250.353C271.018 250.353 258 237.335 258 221.277H254ZM287.076 254.353C287.204 254.353 287.333 254.352 287.461 254.351L287.416 250.351C287.303 250.352 287.189 250.353 287.076 250.353V254.353ZM289.007 253.592L289.008 253.59L285.869 251.112L285.867 251.114L289.007 253.592ZM396.563 250.353H287.437V254.353H396.563V250.353ZM394.563 252.351V252.353H398.563V252.351H394.563Z" fill="url(#paint7_linear_114_50)" mask="url(#path-7-inside-3_114_50)"/>
</g>
<g filter="url(#filter4_bdd_114_50)">
<path d="M130.103 310.607C133.123 306.731 139.332 308.62 139.682 313.521L140.856 329.955C141.44 338.133 133.64 344.355 125.796 341.969C117.951 339.583 114.938 330.072 119.977 323.604L130.103 310.607Z" fill="url(#paint8_linear_114_50)" stroke="url(#paint9_linear_114_50)" stroke-width="3"/>
<path d="M187.61 310.607C190.63 306.731 196.84 308.62 197.19 313.521L198.363 329.955C198.947 338.133 191.148 344.355 183.303 341.969C175.459 339.583 172.445 330.072 177.485 323.604L187.61 310.607Z" fill="url(#paint10_linear_114_50)" stroke="url(#paint11_linear_114_50)" stroke-width="3"/>
<path d="M245.117 310.607C248.137 306.731 254.347 308.62 254.697 313.521L255.87 329.955C256.454 338.133 248.655 344.355 240.811 341.969C232.966 339.583 229.953 330.072 234.992 323.604L245.117 310.607Z" fill="url(#paint12_linear_114_50)" stroke="url(#paint13_linear_114_50)" stroke-width="3"/>
</g>
<defs>
<filter id="filter0_bd_114_50" x="13" y="66" width="272" height="216.353" filterUnits="userSpaceOnUse" color-interpolation-filters="sRGB">
<feFlood flood-opacity="0" result="BackgroundImageFix"/>
<feGaussianBlur in="BackgroundImageFix" stdDeviation="7"/>
<feComposite in2="SourceAlpha" operator="in" result="effect1_backgroundBlur_114_50"/>
<feColorMatrix in="SourceAlpha" type="matrix" values="0 0 0 0 0 0 0 0 0 0 0 0 0 0 0 0 0 0 127 0" result="hardAlpha"/>
<feOffset dx="-21" dy="15"/>
<feGaussianBlur stdDeviation="25"/>
<feComposite in2="hardAlpha" operator="out"/>
<feColorMatrix type="matrix" values="0 0 0 0 0.113438 0 0 0 0 0.148981 0 0 0 0 0.275 0 0 0 0.25 0"/>
<feBlend mode="normal" in2="effect1_backgroundBlur_114_50" result="effect2_dropShadow_114_50"/>
<feBlend mode="normal" in="SourceGraphic" in2="effect2_dropShadow_114_50" result="shape"/>
</filter>
<filter id="filter1_bd_114_50" x="53" y="101" width="338" height="261" filterUnits="userSpaceOnUse" color-interpolation-filters="sRGB">
<feFlood flood-opacity="0" result="BackgroundImageFix"/>
<feGaussianBlur in="BackgroundImageFix" stdDeviation="7"/>
<feComposite in2="SourceAlpha" operator="in" result="effect1_backgroundBlur_114_50"/>
<feColorMatrix in="SourceAlpha" type="matrix" values="0 0 0 0 0 0 0 0 0 0 0 0 0 0 0 0 0 0 127 0" result="hardAlpha"/>
<feOffset dx="-21" dy="15"/>
<feGaussianBlur stdDeviation="25"/>
<feComposite in2="hardAlpha" operator="out"/>
<feColorMatrix type="matrix" values="0 0 0 0 0.113725 0 0 0 0 0.14902 0 0 0 0 0.27451 0 0 0 0.25 0"/>
<feBlend mode="normal" in2="effect1_backgroundBlur_114_50" result="effect2_dropShadow_114_50"/>
<feBlend mode="normal" in="SourceGraphic" in2="effect2_dropShadow_114_50" result="shape"/>
</filter>
<filter id="filter2_bdd_114_50" x="215.369" y="163" width="241.162" height="305.265" filterUnits="userSpaceOnUse" color-interpolation-filters="sRGB">
<feFlood flood-opacity="0" result="BackgroundImageFix"/>
<feGaussianBlur in="BackgroundImageFix" stdDeviation="7"/>
<feComposite in2="SourceAlpha" operator="in" result="effect1_backgroundBlur_114_50"/>
<feColorMatrix in="SourceAlpha" type="matrix" values="0 0 0 0 0 0 0 0 0 0 0 0 0 0 0 0 0 0 127 0" result="hardAlpha"/>
<feOffset dx="-21" dy="15"/>
<feGaussianBlur stdDeviation="25"/>
<feComposite in2="hardAlpha" operator="out"/>
<feColorMatrix type="matrix" values="0 0 0 0 0.113438 0 0 0 0 0.148981 0 0 0 0 0.275 0 0 0 0.25 0"/>
<feBlend mode="normal" in2="effect1_backgroundBlur_114_50" result="effect2_dropShadow_114_50"/>
<feColorMatrix in="SourceAlpha" type="matrix" values="0 0 0 0 0 0 0 0 0 0 0 0 0 0 0 0 0 0 127 0" result="hardAlpha"/>
<feOffset/>
<feGaussianBlur stdDeviation="30.5"/>
<feComposite in2="hardAlpha" operator="out"/>
<feColorMatrix type="matrix" values="0 0 0 0 1 0 0 0 0 0.721569 0 0 0 0 0.00392157 0 0 0 0.49 0"/>
<feBlend mode="normal" in2="effect2_dropShadow_114_50" result="effect3_dropShadow_114_50"/>
<feBlend mode="normal" in="SourceGraphic" in2="effect3_dropShadow_114_50" result="shape"/>
</filter>
<filter id="filter3_bd_114_50" x="185" y="101" width="272" height="216.353" filterUnits="userSpaceOnUse" color-interpolation-filters="sRGB">
<feFlood flood-opacity="0" result="BackgroundImageFix"/>
<feGaussianBlur in="BackgroundImageFix" stdDeviation="7"/>
<feComposite in2="SourceAlpha" operator="in" result="effect1_backgroundBlur_114_50"/>
<feColorMatrix in="SourceAlpha" type="matrix" values="0 0 0 0 0 0 0 0 0 0 0 0 0 0 0 0 0 0 127 0" result="hardAlpha"/>
<feOffset dx="-21" dy="15"/>
<feGaussianBlur stdDeviation="25"/>
<feComposite in2="hardAlpha" operator="out"/>
<feColorMatrix type="matrix" values="0 0 0 0 0.113438 0 0 0 0 0.148981 0 0 0 0 0.275 0 0 0 0.25 0"/>
<feBlend mode="normal" in2="effect1_backgroundBlur_114_50" result="effect2_dropShadow_114_50"/>
<feBlend mode="normal" in="SourceGraphic" in2="effect2_dropShadow_114_50" result="shape"/>
</filter>
<filter id="filter4_bdd_114_50" x="45.002" y="259.031" width="253.399" height="149.955" filterUnits="userSpaceOnUse" color-interpolation-filters="sRGB">
<feFlood flood-opacity="0" result="BackgroundImageFix"/>
<feGaussianBlur in="BackgroundImageFix" stdDeviation="7"/>
<feComposite in2="SourceAlpha" operator="in" result="effect1_backgroundBlur_114_50"/>
<feColorMatrix in="SourceAlpha" type="matrix" values="0 0 0 0 0 0 0 0 0 0 0 0 0 0 0 0 0 0 127 0" result="hardAlpha"/>
<feOffset dx="-21" dy="15"/>
<feGaussianBlur stdDeviation="25"/>
<feComposite in2="hardAlpha" operator="out"/>
<feColorMatrix type="matrix" values="0 0 0 0 0.113438 0 0 0 0 0.148981 0 0 0 0 0.275 0 0 0 0.25 0"/>
<feBlend mode="normal" in2="effect1_backgroundBlur_114_50" result="effect2_dropShadow_114_50"/>
<feColorMatrix in="SourceAlpha" type="matrix" values="0 0 0 0 0 0 0 0 0 0 0 0 0 0 0 0 0 0 127 0" result="hardAlpha"/>
<feOffset dy="-7"/>
<feGaussianBlur stdDeviation="20.5"/>
<feComposite in2="hardAlpha" operator="out"/>
<feColorMatrix type="matrix" values="0 0 0 0 0.1375 0 0 0 0 0.74125 0 0 0 0 1 0 0 0 0.3 0"/>
<feBlend mode="normal" in2="effect2_dropShadow_114_50" result="effect3_dropShadow_114_50"/>
<feBlend mode="normal" in="SourceGraphic" in2="effect3_dropShadow_114_50" result="shape"/>
</filter>
<linearGradient id="paint0_linear_114_50" x1="178" y1="104.5" x2="178" y2="230.5" gradientUnits="userSpaceOnUse">
<stop stop-color="white"/>
<stop offset="1" stop-color="white" stop-opacity="0"/>
</linearGradient>
<linearGradient id="paint1_linear_114_50" x1="170" y1="101" x2="170" y2="217.353" gradientUnits="userSpaceOnUse">
<stop stop-color="white"/>
<stop offset="1" stop-color="white" stop-opacity="0"/>
</linearGradient>
<linearGradient id="paint2_linear_114_50" x1="243" y1="84.5" x2="243" y2="319.5" gradientUnits="userSpaceOnUse">
<stop stop-color="white"/>
<stop offset="1" stop-color="white" stop-opacity="0"/>
</linearGradient>
<linearGradient id="paint3_linear_114_50" x1="243" y1="136" x2="243" y2="297" gradientUnits="userSpaceOnUse">
<stop stop-color="white"/>
<stop offset="1" stop-color="white" stop-opacity="0"/>
</linearGradient>
<linearGradient id="paint4_linear_114_50" x1="352.5" y1="235" x2="327.5" y2="343.5" gradientUnits="userSpaceOnUse">
<stop stop-color="#FF4D00"/>
<stop offset="1" stop-color="#FFB800"/>
</linearGradient>
<linearGradient id="paint5_linear_114_50" x1="319" y1="342" x2="364.5" y2="244.5" gradientUnits="userSpaceOnUse">
<stop stop-color="white"/>
<stop offset="1" stop-color="white" stop-opacity="0"/>
</linearGradient>
<linearGradient id="paint6_linear_114_50" x1="350" y1="139.5" x2="350" y2="265.5" gradientUnits="userSpaceOnUse">
<stop stop-color="white"/>
<stop offset="1" stop-color="white" stop-opacity="0"/>
</linearGradient>
<linearGradient id="paint7_linear_114_50" x1="342" y1="136" x2="342" y2="252.353" gradientUnits="userSpaceOnUse">
<stop stop-color="white"/>
<stop offset="1" stop-color="white" stop-opacity="0"/>
</linearGradient>
<linearGradient id="paint8_linear_114_50" x1="139.905" y1="295.585" x2="125.359" y2="343.404" gradientUnits="userSpaceOnUse">
<stop stop-color="#138EFF"/>
<stop offset="1" stop-color="#00E0FF"/>
</linearGradient>
<linearGradient id="paint9_linear_114_50" x1="139.905" y1="295.585" x2="125.359" y2="343.404" gradientUnits="userSpaceOnUse">
<stop stop-color="white"/>
<stop offset="1" stop-color="white" stop-opacity="0"/>
</linearGradient>
<linearGradient id="paint10_linear_114_50" x1="197.413" y1="295.585" x2="182.867" y2="343.404" gradientUnits="userSpaceOnUse">
<stop stop-color="#138EFF"/>
<stop offset="1" stop-color="#00E0FF"/>
</linearGradient>
<linearGradient id="paint11_linear_114_50" x1="197.413" y1="295.585" x2="182.867" y2="343.404" gradientUnits="userSpaceOnUse">
<stop stop-color="white"/>
<stop offset="1" stop-color="white" stop-opacity="0"/>
</linearGradient>
<linearGradient id="paint12_linear_114_50" x1="254.92" y1="295.585" x2="240.374" y2="343.404" gradientUnits="userSpaceOnUse">
<stop stop-color="#138EFF"/>
<stop offset="1" stop-color="#00E0FF"/>
</linearGradient>
<linearGradient id="paint13_linear_114_50" x1="254.92" y1="295.585" x2="240.374" y2="343.404" gradientUnits="userSpaceOnUse">
<stop stop-color="white"/>
<stop offset="1" stop-color="white" stop-opacity="0"/>
</linearGradient>
</defs>
</svg>
