<svg width="30" height="20" viewBox="0 0 30 20" fill="none" xmlns="http://www.w3.org/2000/svg">
<path d="M15 5.2854C14.6038 5.29705 14.2776 4.94749 14.2776 4.50471V1.11393C14.2776 0.659491 14.6038 0.33323 15 0.33323C15.3845 0.33323 15.7108 0.659491 15.7108 1.11393V4.50471C15.7108 4.94749 15.3845 5.2854 15 5.2854ZM21.0009 7.76731C20.7212 7.49931 20.7329 7.02157 21.0475 6.70696L23.4478 4.30662C23.7741 3.98036 24.2285 3.99201 24.4965 4.27166C24.7762 4.56297 24.7878 5.00575 24.4616 5.33201L22.0612 7.73236C21.7583 8.04696 21.2805 8.04696 21.0009 7.76731ZM8.98748 7.76731C8.70783 8.05862 8.23009 8.04696 7.92713 7.73236L5.52679 5.33201C5.20053 5.00575 5.20053 4.56297 5.49183 4.27166C5.77148 4.00366 6.21427 3.98036 6.54053 4.30662L8.94087 6.70696C9.25548 7.02157 9.25548 7.48766 8.98748 7.76731ZM0.842618 19.0583C0.42314 19.0583 0.0619224 18.7437 0.0619224 18.3475C0.0619224 17.9513 0.42314 17.625 0.842618 17.625H10.1061C9.25548 16.5763 8.74279 15.2364 8.74279 13.7798C8.74279 10.3541 11.5743 7.52262 15 7.52262C18.4141 7.52262 21.2456 10.3541 21.2456 13.7798C21.2456 15.2364 20.7329 16.5763 19.8823 17.625H29.1457C29.5652 17.625 29.9264 17.9513 29.9264 18.3475C29.9264 18.7437 29.5652 19.0583 29.1457 19.0583H0.842618ZM10.176 13.7798C10.176 15.3645 10.9683 16.7744 12.1569 17.625H17.8315C19.02 16.7744 19.8123 15.3645 19.8123 13.7798C19.8123 11.1348 17.645 8.95583 15 8.95583C12.3433 8.95583 10.176 11.1348 10.176 13.7798ZM2.32244 14.1993C1.87966 14.1993 1.5534 13.873 1.5534 13.4885C1.5534 13.0924 1.87966 12.7661 2.32244 12.7661H5.71322C6.16766 12.7661 6.49392 13.0924 6.50557 13.4885C6.50557 13.873 6.17931 14.1993 5.71322 14.1993H2.32244ZM24.2751 14.1993C23.8323 14.1993 23.4944 13.873 23.4828 13.4885C23.4828 13.0924 23.8323 12.7661 24.2751 12.7661H27.6659C28.1087 12.7661 28.4349 13.0924 28.4349 13.4885C28.4349 13.873 28.1087 14.1993 27.6659 14.1993H24.2751Z" fill="#113054"/>
</svg>
