<svg width="512" height="512" viewBox="0 0 512 512" fill="none" xmlns="http://www.w3.org/2000/svg">
<g filter="url(#filter0_bd_115_946)">
<mask id="path-1-inside-1_115_946" fill="white">
<path fill-rule="evenodd" clip-rule="evenodd" d="M224.563 274.351C224.683 274.352 224.804 274.353 224.924 274.353C242.087 274.353 256 260.44 256 243.277C256 226.115 242.087 212.202 224.924 212.202C224.804 212.202 224.683 212.202 224.563 212.204V212.202H216.535C216.825 210.075 216.975 207.904 216.975 205.697C216.975 179.355 195.62 158 169.277 158C142.935 158 121.58 179.355 121.58 205.697C121.58 208.183 121.77 210.624 122.136 213.007C119.868 212.48 117.504 212.202 115.076 212.202C97.913 212.202 84 226.115 84 243.277C84 260.44 97.913 274.353 115.076 274.353C115.197 274.353 115.318 274.352 115.439 274.351L115.437 274.353H224.563V274.351Z"/>
</mask>
<path fill-rule="evenodd" clip-rule="evenodd" d="M224.563 274.351C224.683 274.352 224.804 274.353 224.924 274.353C242.087 274.353 256 260.44 256 243.277C256 226.115 242.087 212.202 224.924 212.202C224.804 212.202 224.683 212.202 224.563 212.204V212.202H216.535C216.825 210.075 216.975 207.904 216.975 205.697C216.975 179.355 195.62 158 169.277 158C142.935 158 121.58 179.355 121.58 205.697C121.58 208.183 121.77 210.624 122.136 213.007C119.868 212.48 117.504 212.202 115.076 212.202C97.913 212.202 84 226.115 84 243.277C84 260.44 97.913 274.353 115.076 274.353C115.197 274.353 115.318 274.352 115.439 274.351L115.437 274.353H224.563V274.351Z" fill="url(#paint0_linear_115_946)" shape-rendering="crispEdges"/>
<path d="M224.563 274.351L224.586 272.351C224.052 272.345 223.537 272.553 223.157 272.929C222.777 273.304 222.563 273.816 222.563 274.351H224.563ZM224.563 212.204H222.563C222.563 212.738 222.777 213.25 223.157 213.626C223.537 214.002 224.051 214.21 224.586 214.204L224.563 212.204ZM224.563 212.202H226.563C226.563 211.097 225.668 210.202 224.563 210.202V212.202ZM216.535 212.202L214.553 211.931C214.475 212.504 214.649 213.082 215.028 213.517C215.408 213.952 215.957 214.202 216.535 214.202V212.202ZM122.136 213.007L121.684 214.955C122.33 215.106 123.009 214.925 123.496 214.474C123.983 214.023 124.214 213.359 124.113 212.703L122.136 213.007ZM115.439 274.351L117.008 275.59C117.486 274.985 117.573 274.16 117.233 273.468C116.893 272.777 116.186 272.342 115.416 272.351L115.439 274.351ZM115.437 274.353L113.867 273.114C113.392 273.715 113.303 274.535 113.637 275.225C113.971 275.915 114.67 276.353 115.437 276.353V274.353ZM224.563 274.353V276.353C225.668 276.353 226.563 275.458 226.563 274.353H224.563ZM224.54 276.351C224.668 276.352 224.796 276.353 224.924 276.353V272.353C224.811 272.353 224.699 272.352 224.586 272.351L224.54 276.351ZM224.924 276.353C243.192 276.353 258 261.544 258 243.277H254C254 259.335 240.982 272.353 224.924 272.353V276.353ZM258 243.277C258 225.01 243.192 210.202 224.924 210.202V214.202C240.982 214.202 254 227.219 254 243.277H258ZM224.924 210.202C224.796 210.202 224.668 210.202 224.54 210.204L224.586 214.204C224.699 214.202 224.811 214.202 224.924 214.202V210.202ZM222.563 212.202V212.204H226.563V212.202H222.563ZM216.535 214.202H224.563V210.202H216.535V214.202ZM218.517 212.472C218.819 210.256 218.975 207.994 218.975 205.697H214.975C214.975 207.813 214.831 209.894 214.553 211.931L218.517 212.472ZM218.975 205.697C218.975 178.25 196.724 156 169.277 156V160C194.515 160 214.975 180.459 214.975 205.697H218.975ZM169.277 156C141.83 156 119.58 178.25 119.58 205.697H123.58C123.58 180.459 144.039 160 169.277 160V156ZM119.58 205.697C119.58 208.285 119.778 210.828 120.16 213.311L124.113 212.703C123.762 210.421 123.58 208.081 123.58 205.697H119.58ZM122.589 211.059C120.173 210.498 117.658 210.202 115.076 210.202V214.202C117.351 214.202 119.563 214.463 121.684 214.955L122.589 211.059ZM115.076 210.202C96.8085 210.202 82 225.01 82 243.277H86C86 227.219 99.0176 214.202 115.076 214.202V210.202ZM82 243.277C82 261.544 96.8085 276.353 115.076 276.353V272.353C99.0176 272.353 86 259.335 86 243.277H82ZM115.076 276.353C115.204 276.353 115.333 276.352 115.461 276.351L115.416 272.351C115.303 272.352 115.189 272.353 115.076 272.353V276.353ZM117.007 275.592L117.008 275.59L113.869 273.112L113.867 273.114L117.007 275.592ZM224.563 272.353H115.437V276.353H224.563V272.353ZM222.563 274.351V274.353H226.563V274.351H222.563Z" fill="url(#paint1_linear_115_946)" mask="url(#path-1-inside-1_115_946)"/>
</g>
<g filter="url(#filter1_bd_115_946)">
<mask id="path-3-inside-2_115_946" fill="white">
<path fill-rule="evenodd" clip-rule="evenodd" d="M318.5 353.997C318.666 353.999 318.833 354 319 354C342.748 354 362 334.748 362 311C362 287.252 342.748 268 319 268C318.833 268 318.666 268.001 318.5 268.003V268H307.391C307.793 265.057 308 262.053 308 259C308 222.549 278.451 193 242 193C205.549 193 176 222.549 176 259C176 262.439 176.263 265.817 176.77 269.115C173.631 268.386 170.361 268 167 268C143.252 268 124 287.252 124 311C124 334.748 143.252 354 167 354C167.168 354 167.335 353.999 167.502 353.997L167.5 354H318.5V353.997Z"/>
</mask>
<path fill-rule="evenodd" clip-rule="evenodd" d="M318.5 353.997C318.666 353.999 318.833 354 319 354C342.748 354 362 334.748 362 311C362 287.252 342.748 268 319 268C318.833 268 318.666 268.001 318.5 268.003V268H307.391C307.793 265.057 308 262.053 308 259C308 222.549 278.451 193 242 193C205.549 193 176 222.549 176 259C176 262.439 176.263 265.817 176.77 269.115C173.631 268.386 170.361 268 167 268C143.252 268 124 287.252 124 311C124 334.748 143.252 354 167 354C167.168 354 167.335 353.999 167.502 353.997L167.5 354H318.5V353.997Z" fill="url(#paint2_linear_115_946)" shape-rendering="crispEdges"/>
<path d="M318.5 353.997L318.523 351.997C317.988 351.991 317.474 352.199 317.094 352.575C316.714 352.951 316.5 353.463 316.5 353.997H318.5ZM318.5 268.003H316.5C316.5 268.537 316.714 269.049 317.094 269.425C317.474 269.801 317.988 270.009 318.523 270.003L318.5 268.003ZM318.5 268H320.5C320.5 266.895 319.605 266 318.5 266V268ZM307.391 268L305.41 267.73C305.332 268.302 305.505 268.88 305.885 269.315C306.265 269.75 306.814 270 307.391 270V268ZM176.77 269.115L176.318 271.063C176.964 271.213 177.643 271.033 178.13 270.582C178.617 270.13 178.848 269.467 178.747 268.811L176.77 269.115ZM167.502 353.997L169.072 355.237C169.549 354.632 169.637 353.807 169.297 353.115C168.957 352.423 168.25 351.988 167.479 351.997L167.502 353.997ZM167.5 354L165.931 352.76C165.455 353.362 165.366 354.182 165.7 354.872C166.034 355.562 166.733 356 167.5 356V354ZM318.5 354V356C319.605 356 320.5 355.105 320.5 354H318.5ZM318.477 355.997C318.651 355.999 318.825 356 319 356V352C318.841 352 318.682 351.999 318.523 351.997L318.477 355.997ZM319 356C343.853 356 364 335.853 364 311H360C360 333.644 341.644 352 319 352V356ZM364 311C364 286.147 343.853 266 319 266V270C341.644 270 360 288.356 360 311H364ZM319 266C318.826 266 318.651 266.001 318.477 266.003L318.523 270.003C318.682 270.001 318.841 270 319 270V266ZM316.5 268V268.003H320.5V268H316.5ZM307.391 270H318.5V266H307.391V270ZM309.373 268.27C309.787 265.238 310 262.143 310 259H306C306 261.962 305.799 264.876 305.41 267.73L309.373 268.27ZM310 259C310 221.445 279.555 191 242 191V195C277.346 195 306 223.654 306 259H310ZM242 191C204.445 191 174 221.445 174 259H178C178 223.654 206.654 195 242 195V191ZM174 259C174 262.542 174.271 266.021 174.793 269.419L178.747 268.811C178.255 265.614 178 262.337 178 259H174ZM177.223 267.167C173.937 266.403 170.514 266 167 266V270C170.207 270 173.326 270.368 176.318 271.063L177.223 267.167ZM167 266C142.147 266 122 286.147 122 311H126C126 288.356 144.356 270 167 270V266ZM122 311C122 335.853 142.147 356 167 356V352C144.356 352 126 333.644 126 311H122ZM167 356C167.175 356 167.35 355.999 167.525 355.997L167.479 351.997C167.32 351.999 167.16 352 167 352V356ZM169.069 355.24L169.072 355.237L165.933 352.757L165.931 352.76L169.069 355.24ZM318.5 352H167.5V356H318.5V352ZM316.5 353.997V354H320.5V353.997H316.5Z" fill="url(#paint3_linear_115_946)" mask="url(#path-3-inside-2_115_946)"/>
</g>
<g filter="url(#filter2_bd_115_946)">
<mask id="path-5-inside-3_115_946" fill="white">
<path fill-rule="evenodd" clip-rule="evenodd" d="M396.563 309.351C396.683 309.352 396.804 309.353 396.924 309.353C414.087 309.353 428 295.44 428 278.277C428 261.115 414.087 247.202 396.924 247.202C396.804 247.202 396.683 247.202 396.563 247.204V247.202H388.535C388.825 245.075 388.975 242.904 388.975 240.697C388.975 214.355 367.62 193 341.277 193C314.935 193 293.58 214.355 293.58 240.697C293.58 243.183 293.77 245.624 294.136 248.007C291.868 247.48 289.504 247.202 287.076 247.202C269.913 247.202 256 261.115 256 278.277C256 295.44 269.913 309.353 287.076 309.353C287.197 309.353 287.318 309.352 287.439 309.351L287.437 309.353H396.563V309.351Z"/>
</mask>
<path fill-rule="evenodd" clip-rule="evenodd" d="M396.563 309.351C396.683 309.352 396.804 309.353 396.924 309.353C414.087 309.353 428 295.44 428 278.277C428 261.115 414.087 247.202 396.924 247.202C396.804 247.202 396.683 247.202 396.563 247.204V247.202H388.535C388.825 245.075 388.975 242.904 388.975 240.697C388.975 214.355 367.62 193 341.277 193C314.935 193 293.58 214.355 293.58 240.697C293.58 243.183 293.77 245.624 294.136 248.007C291.868 247.48 289.504 247.202 287.076 247.202C269.913 247.202 256 261.115 256 278.277C256 295.44 269.913 309.353 287.076 309.353C287.197 309.353 287.318 309.352 287.439 309.351L287.437 309.353H396.563V309.351Z" fill="url(#paint4_linear_115_946)" shape-rendering="crispEdges"/>
<path d="M396.563 309.351L396.586 307.351C396.052 307.345 395.537 307.553 395.157 307.929C394.777 308.304 394.563 308.816 394.563 309.351H396.563ZM396.563 247.204H394.563C394.563 247.738 394.777 248.25 395.157 248.626C395.537 249.002 396.051 249.21 396.586 249.204L396.563 247.204ZM396.563 247.202H398.563C398.563 246.097 397.668 245.202 396.563 245.202V247.202ZM388.535 247.202L386.553 246.931C386.475 247.504 386.649 248.082 387.028 248.517C387.408 248.952 387.957 249.202 388.535 249.202V247.202ZM294.136 248.007L293.684 249.955C294.33 250.106 295.009 249.925 295.496 249.474C295.983 249.023 296.214 248.359 296.113 247.703L294.136 248.007ZM287.439 309.351L289.008 310.59C289.486 309.985 289.573 309.16 289.233 308.468C288.893 307.777 288.186 307.342 287.416 307.351L287.439 309.351ZM287.437 309.353L285.867 308.114C285.392 308.715 285.303 309.535 285.637 310.225C285.971 310.915 286.67 311.353 287.437 311.353V309.353ZM396.563 309.353V311.353C397.668 311.353 398.563 310.458 398.563 309.353H396.563ZM396.54 311.351C396.668 311.352 396.796 311.353 396.924 311.353V307.353C396.811 307.353 396.699 307.352 396.586 307.351L396.54 311.351ZM396.924 311.353C415.192 311.353 430 296.544 430 278.277H426C426 294.335 412.982 307.353 396.924 307.353V311.353ZM430 278.277C430 260.01 415.192 245.202 396.924 245.202V249.202C412.982 249.202 426 262.219 426 278.277H430ZM396.924 245.202C396.796 245.202 396.668 245.202 396.54 245.204L396.586 249.204C396.699 249.202 396.811 249.202 396.924 249.202V245.202ZM394.563 247.202V247.204H398.563V247.202H394.563ZM388.535 249.202H396.563V245.202H388.535V249.202ZM390.517 247.472C390.819 245.256 390.975 242.994 390.975 240.697H386.975C386.975 242.813 386.831 244.894 386.553 246.931L390.517 247.472ZM390.975 240.697C390.975 213.25 368.724 191 341.277 191V195C366.515 195 386.975 215.459 386.975 240.697H390.975ZM341.277 191C313.83 191 291.58 213.25 291.58 240.697H295.58C295.58 215.459 316.039 195 341.277 195V191ZM291.58 240.697C291.58 243.285 291.778 245.828 292.16 248.311L296.113 247.703C295.762 245.421 295.58 243.081 295.58 240.697H291.58ZM294.589 246.059C292.173 245.498 289.658 245.202 287.076 245.202V249.202C289.351 249.202 291.563 249.463 293.684 249.955L294.589 246.059ZM287.076 245.202C268.808 245.202 254 260.01 254 278.277H258C258 262.219 271.018 249.202 287.076 249.202V245.202ZM254 278.277C254 296.544 268.808 311.353 287.076 311.353V307.353C271.018 307.353 258 294.335 258 278.277H254ZM287.076 311.353C287.204 311.353 287.333 311.352 287.461 311.351L287.416 307.351C287.303 307.352 287.189 307.353 287.076 307.353V311.353ZM289.007 310.592L289.008 310.59L285.869 308.112L285.867 308.114L289.007 310.592ZM396.563 307.353H287.437V311.353H396.563V307.353ZM394.563 309.351V309.353H398.563V309.351H394.563Z" fill="url(#paint5_linear_115_946)" mask="url(#path-5-inside-3_115_946)"/>
</g>
<defs>
<filter id="filter0_bd_115_946" x="13" y="123" width="272" height="216.353" filterUnits="userSpaceOnUse" color-interpolation-filters="sRGB">
<feFlood flood-opacity="0" result="BackgroundImageFix"/>
<feGaussianBlur in="BackgroundImageFix" stdDeviation="7"/>
<feComposite in2="SourceAlpha" operator="in" result="effect1_backgroundBlur_115_946"/>
<feColorMatrix in="SourceAlpha" type="matrix" values="0 0 0 0 0 0 0 0 0 0 0 0 0 0 0 0 0 0 127 0" result="hardAlpha"/>
<feOffset dx="-21" dy="15"/>
<feGaussianBlur stdDeviation="25"/>
<feComposite in2="hardAlpha" operator="out"/>
<feColorMatrix type="matrix" values="0 0 0 0 0.113438 0 0 0 0 0.148981 0 0 0 0 0.275 0 0 0 0.25 0"/>
<feBlend mode="normal" in2="effect1_backgroundBlur_115_946" result="effect2_dropShadow_115_946"/>
<feBlend mode="normal" in="SourceGraphic" in2="effect2_dropShadow_115_946" result="shape"/>
</filter>
<filter id="filter1_bd_115_946" x="53" y="158" width="338" height="261" filterUnits="userSpaceOnUse" color-interpolation-filters="sRGB">
<feFlood flood-opacity="0" result="BackgroundImageFix"/>
<feGaussianBlur in="BackgroundImageFix" stdDeviation="7"/>
<feComposite in2="SourceAlpha" operator="in" result="effect1_backgroundBlur_115_946"/>
<feColorMatrix in="SourceAlpha" type="matrix" values="0 0 0 0 0 0 0 0 0 0 0 0 0 0 0 0 0 0 127 0" result="hardAlpha"/>
<feOffset dx="-21" dy="15"/>
<feGaussianBlur stdDeviation="25"/>
<feComposite in2="hardAlpha" operator="out"/>
<feColorMatrix type="matrix" values="0 0 0 0 0.113725 0 0 0 0 0.14902 0 0 0 0 0.27451 0 0 0 0.25 0"/>
<feBlend mode="normal" in2="effect1_backgroundBlur_115_946" result="effect2_dropShadow_115_946"/>
<feBlend mode="normal" in="SourceGraphic" in2="effect2_dropShadow_115_946" result="shape"/>
</filter>
<filter id="filter2_bd_115_946" x="185" y="158" width="272" height="216.353" filterUnits="userSpaceOnUse" color-interpolation-filters="sRGB">
<feFlood flood-opacity="0" result="BackgroundImageFix"/>
<feGaussianBlur in="BackgroundImageFix" stdDeviation="7"/>
<feComposite in2="SourceAlpha" operator="in" result="effect1_backgroundBlur_115_946"/>
<feColorMatrix in="SourceAlpha" type="matrix" values="0 0 0 0 0 0 0 0 0 0 0 0 0 0 0 0 0 0 127 0" result="hardAlpha"/>
<feOffset dx="-21" dy="15"/>
<feGaussianBlur stdDeviation="25"/>
<feComposite in2="hardAlpha" operator="out"/>
<feColorMatrix type="matrix" values="0 0 0 0 0.113438 0 0 0 0 0.148981 0 0 0 0 0.275 0 0 0 0.25 0"/>
<feBlend mode="normal" in2="effect1_backgroundBlur_115_946" result="effect2_dropShadow_115_946"/>
<feBlend mode="normal" in="SourceGraphic" in2="effect2_dropShadow_115_946" result="shape"/>
</filter>
<linearGradient id="paint0_linear_115_946" x1="178" y1="161.5" x2="178" y2="287.5" gradientUnits="userSpaceOnUse">
<stop stop-color="white"/>
<stop offset="1" stop-color="white" stop-opacity="0"/>
</linearGradient>
<linearGradient id="paint1_linear_115_946" x1="170" y1="158" x2="170" y2="274.353" gradientUnits="userSpaceOnUse">
<stop stop-color="white"/>
<stop offset="1" stop-color="white" stop-opacity="0"/>
</linearGradient>
<linearGradient id="paint2_linear_115_946" x1="243" y1="141.5" x2="243" y2="376.5" gradientUnits="userSpaceOnUse">
<stop stop-color="white"/>
<stop offset="1" stop-color="white" stop-opacity="0"/>
</linearGradient>
<linearGradient id="paint3_linear_115_946" x1="243" y1="193" x2="243" y2="354" gradientUnits="userSpaceOnUse">
<stop stop-color="white"/>
<stop offset="1" stop-color="white" stop-opacity="0"/>
</linearGradient>
<linearGradient id="paint4_linear_115_946" x1="350" y1="196.5" x2="350" y2="322.5" gradientUnits="userSpaceOnUse">
<stop stop-color="white"/>
<stop offset="1" stop-color="white" stop-opacity="0"/>
</linearGradient>
<linearGradient id="paint5_linear_115_946" x1="342" y1="193" x2="342" y2="309.353" gradientUnits="userSpaceOnUse">
<stop stop-color="white"/>
<stop offset="1" stop-color="white" stop-opacity="0"/>
</linearGradient>
</defs>
</svg>
