<svg width="512" height="512" viewBox="0 0 512 512" fill="none" xmlns="http://www.w3.org/2000/svg">
<g filter="url(#filter0_d_115_755)">
<path d="M188.305 281.964C188.305 274.805 192.032 268.078 198.57 262.239C176.402 251.311 162.436 235.39 162.436 217.665C162.436 184.713 210.69 158 270.218 158C329.746 158 378 184.713 378 217.665C378 235.565 363.767 251.619 341.221 262.555C347.542 268.32 351.136 274.933 351.136 281.964C351.136 304.364 314.687 322.513 269.722 322.513C224.756 322.513 188.305 304.359 188.305 281.964Z" fill="url(#paint0_linear_115_755)"/>
<path d="M269.721 321.513C280.66 321.513 291.27 320.446 301.257 318.342C310.888 316.313 319.532 313.412 326.95 309.717C330.592 307.904 333.896 305.91 336.769 303.791C339.655 301.664 342.129 299.394 344.124 297.046C348.205 292.24 350.274 287.166 350.274 281.964C350.274 278.7 349.445 275.449 347.811 272.3C346.199 269.195 343.802 266.181 340.688 263.341L339.534 262.289L340.888 261.632C346.476 258.922 351.566 255.883 356.017 252.6C360.487 249.303 364.333 245.744 367.447 242.024C370.599 238.258 373.02 234.303 374.643 230.269C376.299 226.152 377.138 221.912 377.138 217.665C377.138 213.753 376.425 209.84 375.018 206.035C373.639 202.302 371.575 198.625 368.885 195.104C366.228 191.626 362.934 188.268 359.095 185.123C355.279 181.996 350.894 179.054 346.06 176.378C341.217 173.697 335.886 171.262 330.216 169.142C324.484 166.998 318.356 165.157 312.001 163.669C298.769 160.571 284.711 159 270.218 159C255.724 159 241.666 160.571 228.434 163.669C222.08 165.157 215.951 166.998 210.22 169.142C204.549 171.262 199.218 173.697 194.375 176.378C189.542 179.054 185.156 181.996 181.34 185.123C177.501 188.268 174.208 191.626 171.55 195.104C168.86 198.625 166.797 202.302 165.417 206.035C164.01 209.84 163.297 213.753 163.297 217.665C163.297 221.871 164.121 226.072 165.746 230.151C167.339 234.149 169.716 238.071 172.811 241.808C175.868 245.5 179.646 249.035 184.038 252.316C188.41 255.582 193.412 258.611 198.906 261.319L200.264 261.988L199.095 263.032C195.872 265.91 193.39 268.971 191.72 272.129C190.025 275.332 189.166 278.641 189.166 281.964C189.166 287.166 191.236 292.24 195.316 297.046C197.311 299.394 199.786 301.664 202.671 303.791C205.545 305.91 208.849 307.904 212.491 309.717C219.908 313.412 228.553 316.313 238.184 318.342C248.171 320.446 258.781 321.513 269.721 321.513ZM269.721 322.513C224.756 322.513 188.305 304.359 188.305 281.964C188.305 274.804 192.031 268.077 198.57 262.239C176.401 251.311 162.436 235.39 162.436 217.665C162.436 184.713 210.691 158 270.218 158C329.744 158 378 184.713 378 217.665C378 235.563 363.767 251.619 341.221 262.555C347.542 268.319 351.136 274.933 351.136 281.964C351.136 304.359 314.685 322.513 269.721 322.513Z" fill="white" fill-opacity="0.5"/>
</g>
<path d="M172.061 264.391C172.061 264.391 158.269 282.414 160.721 293.201C163.173 303.988 169.826 313.416 203.988 320.625C238.149 327.834 298.316 320.625 298.316 320.625" stroke="url(#paint1_linear_115_755)" stroke-width="4"/>
<path d="M198.148 321.278C198.148 321.278 189.667 330.77 192.087 338.278C194.508 345.786 204.206 351.186 212.616 352.914C221.979 355.003 231.485 356.108 241.019 356.214C256.264 356.328 271.422 351.455 271.422 351.455" stroke="url(#paint2_linear_115_755)" stroke-width="4" stroke-linecap="round"/>
<path d="M248.715 277.812C310.166 277.812 359.982 251.215 359.982 218.406C359.982 185.597 310.166 159 248.715 159C187.263 159 137.447 185.597 137.447 218.406C137.447 251.215 187.263 277.812 248.715 277.812Z" stroke="url(#paint3_linear_115_755)" stroke-width="4"/>
<defs>
<filter id="filter0_d_115_755" x="142.436" y="130" width="275.564" height="224.513" filterUnits="userSpaceOnUse" color-interpolation-filters="sRGB">
<feFlood flood-opacity="0" result="BackgroundImageFix"/>
<feColorMatrix in="SourceAlpha" type="matrix" values="0 0 0 0 0 0 0 0 0 0 0 0 0 0 0 0 0 0 127 0" result="hardAlpha"/>
<feOffset dx="10" dy="2"/>
<feGaussianBlur stdDeviation="15"/>
<feColorMatrix type="matrix" values="0 0 0 0 0 0 0 0 0 0 0 0 0 0 0 0 0 0 0.25 0"/>
<feBlend mode="normal" in2="BackgroundImageFix" result="effect1_dropShadow_115_755"/>
<feBlend mode="normal" in="SourceGraphic" in2="effect1_dropShadow_115_755" result="shape"/>
</filter>
<linearGradient id="paint0_linear_115_755" x1="249.739" y1="178.729" x2="311.153" y2="323.615" gradientUnits="userSpaceOnUse">
<stop stop-color="white" stop-opacity="0.6"/>
<stop offset="1" stop-color="white" stop-opacity="0"/>
</linearGradient>
<linearGradient id="paint1_linear_115_755" x1="229.372" y1="264.391" x2="229.372" y2="323.829" gradientUnits="userSpaceOnUse">
<stop stop-color="white" stop-opacity="0.65"/>
<stop offset="1" stop-color="white" stop-opacity="0"/>
</linearGradient>
<linearGradient id="paint2_linear_115_755" x1="231.538" y1="321.278" x2="231.538" y2="356.216" gradientUnits="userSpaceOnUse">
<stop stop-color="white" stop-opacity="0.65"/>
<stop offset="1" stop-color="white" stop-opacity="0"/>
</linearGradient>
<linearGradient id="paint3_linear_115_755" x1="248.715" y1="159" x2="248.715" y2="277.812" gradientUnits="userSpaceOnUse">
<stop stop-color="white" stop-opacity="0.65"/>
<stop offset="1" stop-color="white" stop-opacity="0"/>
</linearGradient>
</defs>
</svg>
