<svg width="15" height="24" viewBox="0 0 15 24" fill="none" xmlns="http://www.w3.org/2000/svg">
<path d="M2.75174 22.3791L3.56739 19.2719C1.73218 17.7765 0.673773 15.2228 0.673773 11.931C0.673773 6.69725 3.42174 3.36668 7.78159 3.29871L8.21855 1.63827C8.40304 0.948852 9.40319 1.1819 9.2284 1.88103L8.84 3.34726C9.73333 3.45407 10.5684 3.72595 11.2967 4.14349L11.9472 1.68682C12.122 0.997403 13.1319 1.23045 12.9474 1.93929L12.1997 4.76494C13.0639 5.47378 13.7145 6.40595 14.0835 7.52262C14.1612 7.77508 14.2097 8.02754 14.2291 8.29943C14.2388 8.69754 13.9864 8.97914 13.5883 8.97914C13.2096 8.97914 13.0056 8.79464 12.8891 8.3674C12.7143 7.57117 12.3356 6.85262 11.8113 6.2603L8.32536 19.437C10.7238 19.301 12.5299 17.8639 12.9765 15.7762C13.093 15.3878 13.2872 15.1742 13.6659 15.1742C14.0738 15.1742 14.3165 15.4558 14.3165 15.8345C14.2971 16.1258 14.2388 16.4268 14.1514 16.7181C13.3552 19.1165 11.083 20.7284 7.98551 20.7284L7.47087 22.6899C7.29609 23.3501 6.27652 23.1851 6.47073 22.4374L6.93681 20.6701C6.03377 20.5536 5.20841 20.2914 4.47044 19.8836L3.74218 22.6316C3.56739 23.3016 2.55754 23.1365 2.75174 22.3791ZM2.13029 11.931C2.13029 14.4362 2.79058 16.4365 3.97522 17.7474L7.44174 4.59986C4.15971 4.85233 2.13029 7.61972 2.13029 11.931ZM4.82971 18.5145C5.52884 19 6.3542 19.3107 7.27667 19.4078L10.9471 5.4932C10.2577 5.0174 9.42261 4.69697 8.50985 4.60957L4.82971 18.5145Z" fill="#8F8F8F"/>
</svg>
