<svg width="24" height="18" viewBox="0 0 24 18" fill="none" xmlns="http://www.w3.org/2000/svg">
<path d="M12.525 13.5187C12.1917 13.6812 11.854 13.6905 11.512 13.5465C11.1707 13.403 11 13.1812 11 12.8812V9.75H3C2.71667 9.75 2.47933 9.678 2.288 9.534C2.096 9.3905 2 9.2125 2 9C2 8.7875 2.096 8.60925 2.288 8.46525C2.47933 8.32175 2.71667 8.25 3 8.25H11V5.11875C11 4.81875 11.1707 4.59675 11.512 4.45275C11.854 4.30925 12.1917 4.31875 12.525 4.48125L20.675 8.3625C20.9917 8.5125 21.15 8.725 21.15 9C21.15 9.275 20.9917 9.4875 20.675 9.6375L12.525 13.5187Z" fill="#D2D2D2"/>
</svg>
