<svg width="32" height="32" viewBox="0 0 32 32" fill="none" xmlns="http://www.w3.org/2000/svg">
<g clip-path="url(#clip0_39_1114)">
<path d="M3.40398 13.019H18.997C19.549 13.019 19.997 12.567 19.997 12.009C19.997 11.451 19.549 10.999 18.997 10.999H3.40398L8.60398 5.72401C8.99498 5.32901 8.99498 4.69001 8.60398 4.29601C8.21299 3.90101 7.57998 3.90101 7.18998 4.29601L0.290984 11.295C-0.0940156 11.684 -0.0980156 12.335 0.290984 12.724L7.19098 19.723C7.58198 20.118 8.21498 20.117 8.60498 19.723C8.99598 19.329 8.99598 18.689 8.60498 18.295L3.40398 13.019Z" fill="#153963"/>
<path d="M31.71 19.277L24.81 12.278C24.419 11.883 23.786 11.884 23.396 12.278C23.005 12.672 23.005 13.312 23.396 13.706L28.596 18.981H13.003C12.451 18.981 12.003 19.433 12.003 19.991C12.003 20.549 12.451 21.001 13.003 21.001H28.596L23.396 26.276C23.005 26.671 23.005 27.31 23.396 27.704C23.787 28.099 24.42 28.099 24.81 27.704L31.709 20.705C32.095 20.317 32.099 19.666 31.71 19.277Z" fill="#153963"/>
</g>
<defs>
<clipPath id="clip0_39_1114">
<rect width="32" height="32" fill="white"/>
</clipPath>
</defs>
</svg>
