<svg width="512" height="512" viewBox="0 0 512 512" fill="none" xmlns="http://www.w3.org/2000/svg">
<g filter="url(#filter0_bd_115_924)">
<mask id="path-1-inside-1_115_924" fill="white">
<path fill-rule="evenodd" clip-rule="evenodd" d="M298.5 336.997C298.666 336.999 298.833 337 299 337C322.748 337 342 317.748 342 294C342 270.252 322.748 251 299 251C298.833 251 298.666 251.001 298.5 251.003V251H287.391C287.793 248.057 288 245.053 288 242C288 205.549 258.451 176 222 176C185.549 176 156 205.549 156 242C156 245.439 156.263 248.817 156.77 252.115C153.631 251.386 150.361 251 147 251C123.252 251 104 270.252 104 294C104 317.748 123.252 337 147 337C147.168 337 147.335 336.999 147.502 336.997L147.5 337H298.5V336.997Z"/>
</mask>
<path fill-rule="evenodd" clip-rule="evenodd" d="M298.5 336.997C298.666 336.999 298.833 337 299 337C322.748 337 342 317.748 342 294C342 270.252 322.748 251 299 251C298.833 251 298.666 251.001 298.5 251.003V251H287.391C287.793 248.057 288 245.053 288 242C288 205.549 258.451 176 222 176C185.549 176 156 205.549 156 242C156 245.439 156.263 248.817 156.77 252.115C153.631 251.386 150.361 251 147 251C123.252 251 104 270.252 104 294C104 317.748 123.252 337 147 337C147.168 337 147.335 336.999 147.502 336.997L147.5 337H298.5V336.997Z" fill="url(#paint0_linear_115_924)" shape-rendering="crispEdges"/>
<path d="M298.5 336.997L298.534 333.997C297.733 333.988 296.961 334.3 296.391 334.864C295.821 335.427 295.5 336.196 295.5 336.997H298.5ZM298.5 251.003H295.5C295.5 251.804 295.821 252.573 296.391 253.136C296.961 253.7 297.733 254.012 298.534 254.003L298.5 251.003ZM298.5 251H301.5C301.5 249.343 300.157 248 298.5 248V251ZM287.391 251L284.419 250.595C284.302 251.453 284.562 252.32 285.131 252.973C285.701 253.625 286.525 254 287.391 254V251ZM156.77 252.115L156.091 255.037C157.061 255.262 158.08 254.992 158.81 254.315C159.54 253.638 159.887 252.643 159.735 251.659L156.77 252.115ZM147.502 336.997L149.856 338.857C150.573 337.95 150.705 336.711 150.195 335.674C149.685 334.636 148.624 333.984 147.468 333.997L147.502 336.997ZM147.5 337L145.146 335.14C144.433 336.043 144.299 337.273 144.8 338.308C145.301 339.343 146.35 340 147.5 340V337ZM298.5 337V340C300.157 340 301.5 338.657 301.5 337H298.5ZM298.466 339.997C298.644 339.999 298.822 340 299 340V334C298.845 334 298.689 333.999 298.534 333.997L298.466 339.997ZM299 340C324.405 340 345 319.405 345 294H339C339 316.091 321.091 334 299 334V340ZM345 294C345 268.595 324.405 248 299 248V254C321.091 254 339 271.909 339 294H345ZM299 248C298.822 248 298.644 248.001 298.466 248.003L298.534 254.003C298.689 254.001 298.844 254 299 254V248ZM295.5 251V251.003H301.5V251H295.5ZM287.391 254H298.5V248H287.391V254ZM290.364 251.405C290.783 248.329 291 245.189 291 242H285C285 244.917 284.802 247.786 284.419 250.595L290.364 251.405ZM291 242C291 203.892 260.108 173 222 173V179C256.794 179 285 207.206 285 242H291ZM222 173C183.892 173 153 203.892 153 242H159C159 207.206 187.206 179 222 179V173ZM153 242C153 245.593 153.275 249.123 153.805 252.571L159.735 251.659C159.251 248.512 159 245.286 159 242H153ZM157.449 249.193C154.089 248.412 150.591 248 147 248V254C150.131 254 153.174 254.359 156.091 255.037L157.449 249.193ZM147 248C121.595 248 101 268.595 101 294H107C107 271.909 124.909 254 147 254V248ZM101 294C101 319.405 121.595 340 147 340V334C124.909 334 107 316.091 107 294H101ZM147 340C147.179 340 147.358 339.999 147.536 339.997L147.468 333.997C147.312 333.999 147.156 334 147 334V340ZM149.854 338.86L149.856 338.857L145.148 335.138L145.146 335.14L149.854 338.86ZM298.5 334H147.5V340H298.5V334ZM295.5 336.997V337H301.5V336.997H295.5Z" fill="url(#paint1_linear_115_924)" mask="url(#path-1-inside-1_115_924)"/>
</g>
<g filter="url(#filter1_bd_115_924)">
<mask id="path-3-inside-2_115_924" fill="white">
<path fill-rule="evenodd" clip-rule="evenodd" d="M376.563 292.351C376.683 292.352 376.804 292.353 376.924 292.353C394.087 292.353 408 278.44 408 261.277C408 244.115 394.087 230.202 376.924 230.202C376.804 230.202 376.683 230.202 376.563 230.204V230.202H368.535C368.825 228.075 368.975 225.904 368.975 223.697C368.975 197.355 347.62 176 321.277 176C294.935 176 273.58 197.355 273.58 223.697C273.58 226.183 273.77 228.624 274.136 231.007C271.868 230.48 269.504 230.202 267.076 230.202C249.913 230.202 236 244.115 236 261.277C236 278.44 249.913 292.353 267.076 292.353C267.197 292.353 267.318 292.352 267.439 292.351L267.437 292.353H376.563V292.351Z"/>
</mask>
<path fill-rule="evenodd" clip-rule="evenodd" d="M376.563 292.351C376.683 292.352 376.804 292.353 376.924 292.353C394.087 292.353 408 278.44 408 261.277C408 244.115 394.087 230.202 376.924 230.202C376.804 230.202 376.683 230.202 376.563 230.204V230.202H368.535C368.825 228.075 368.975 225.904 368.975 223.697C368.975 197.355 347.62 176 321.277 176C294.935 176 273.58 197.355 273.58 223.697C273.58 226.183 273.77 228.624 274.136 231.007C271.868 230.48 269.504 230.202 267.076 230.202C249.913 230.202 236 244.115 236 261.277C236 278.44 249.913 292.353 267.076 292.353C267.197 292.353 267.318 292.352 267.439 292.351L267.437 292.353H376.563V292.351Z" fill="url(#paint2_linear_115_924)" shape-rendering="crispEdges"/>
<path d="M376.563 292.351L376.597 289.351C375.796 289.342 375.024 289.654 374.454 290.217C373.884 290.781 373.563 291.549 373.563 292.351H376.563ZM376.563 230.204H373.563C373.563 231.005 373.884 231.774 374.454 232.337C375.024 232.901 375.796 233.213 376.597 233.204L376.563 230.204ZM376.563 230.202H379.563C379.563 228.545 378.22 227.202 376.563 227.202V230.202ZM368.535 230.202L365.563 229.796C365.445 230.655 365.705 231.522 366.275 232.175C366.845 232.827 367.669 233.202 368.535 233.202V230.202ZM274.136 231.007L273.458 233.93C274.427 234.155 275.446 233.884 276.176 233.207C276.906 232.531 277.253 231.535 277.102 230.551L274.136 231.007ZM267.439 292.351L269.793 294.21C270.509 293.303 270.641 292.065 270.131 291.027C269.621 289.99 268.56 289.338 267.404 289.351L267.439 292.351ZM267.437 292.353L265.082 290.494C264.37 291.396 264.236 292.627 264.737 293.661C265.239 294.696 266.287 295.353 267.437 295.353V292.353ZM376.563 292.353V295.353C378.22 295.353 379.563 294.01 379.563 292.353H376.563ZM376.529 295.351C376.661 295.352 376.792 295.353 376.924 295.353V289.353C376.815 289.353 376.706 289.352 376.597 289.351L376.529 295.351ZM376.924 295.353C395.744 295.353 411 280.097 411 261.277H405C405 276.783 392.43 289.353 376.924 289.353V295.353ZM411 261.277C411 242.458 395.744 227.202 376.924 227.202V233.202C392.43 233.202 405 245.772 405 261.277H411ZM376.924 227.202C376.792 227.202 376.661 227.202 376.529 227.204L376.597 233.204C376.706 233.202 376.815 233.202 376.924 233.202V227.202ZM373.563 230.202V230.204H379.563V230.202H373.563ZM368.535 233.202H376.563V227.202H368.535V233.202ZM371.508 230.607C371.816 228.346 371.975 226.04 371.975 223.697H365.975C365.975 225.768 365.834 227.804 365.563 229.796L371.508 230.607ZM371.975 223.697C371.975 195.698 349.277 173 321.277 173V179C345.963 179 365.975 199.012 365.975 223.697H371.975ZM321.277 173C293.278 173 270.58 195.698 270.58 223.697H276.58C276.58 199.012 296.592 179 321.277 179V173ZM270.58 223.697C270.58 226.336 270.782 228.93 271.171 231.463L277.102 230.551C276.758 228.319 276.58 226.03 276.58 223.697H270.58ZM274.815 228.085C272.326 227.507 269.735 227.202 267.076 227.202V233.202C269.274 233.202 271.41 233.454 273.458 233.93L274.815 228.085ZM267.076 227.202C248.256 227.202 233 242.458 233 261.277H239C239 245.772 251.57 233.202 267.076 233.202V227.202ZM233 261.277C233 280.097 248.256 295.353 267.076 295.353V289.353C251.57 289.353 239 276.783 239 261.277H233ZM267.076 295.353C267.208 295.353 267.341 295.352 267.473 295.351L267.404 289.351C267.295 289.352 267.185 289.353 267.076 289.353V295.353ZM269.792 294.212L269.793 294.21L265.084 290.492L265.082 290.494L269.792 294.212ZM376.563 289.353H267.437V295.353H376.563V289.353ZM373.563 292.351V292.353H379.563V292.351H373.563Z" fill="url(#paint3_linear_115_924)" mask="url(#path-3-inside-2_115_924)"/>
</g>
<defs>
<filter id="filter0_bd_115_924" x="33" y="141" width="338" height="261" filterUnits="userSpaceOnUse" color-interpolation-filters="sRGB">
<feFlood flood-opacity="0" result="BackgroundImageFix"/>
<feGaussianBlur in="BackgroundImageFix" stdDeviation="7"/>
<feComposite in2="SourceAlpha" operator="in" result="effect1_backgroundBlur_115_924"/>
<feColorMatrix in="SourceAlpha" type="matrix" values="0 0 0 0 0 0 0 0 0 0 0 0 0 0 0 0 0 0 127 0" result="hardAlpha"/>
<feOffset dx="-21" dy="15"/>
<feGaussianBlur stdDeviation="25"/>
<feComposite in2="hardAlpha" operator="out"/>
<feColorMatrix type="matrix" values="0 0 0 0 0.113725 0 0 0 0 0.14902 0 0 0 0 0.27451 0 0 0 0.25 0"/>
<feBlend mode="normal" in2="effect1_backgroundBlur_115_924" result="effect2_dropShadow_115_924"/>
<feBlend mode="normal" in="SourceGraphic" in2="effect2_dropShadow_115_924" result="shape"/>
</filter>
<filter id="filter1_bd_115_924" x="165" y="141" width="272" height="216.353" filterUnits="userSpaceOnUse" color-interpolation-filters="sRGB">
<feFlood flood-opacity="0" result="BackgroundImageFix"/>
<feGaussianBlur in="BackgroundImageFix" stdDeviation="7"/>
<feComposite in2="SourceAlpha" operator="in" result="effect1_backgroundBlur_115_924"/>
<feColorMatrix in="SourceAlpha" type="matrix" values="0 0 0 0 0 0 0 0 0 0 0 0 0 0 0 0 0 0 127 0" result="hardAlpha"/>
<feOffset dx="-21" dy="15"/>
<feGaussianBlur stdDeviation="25"/>
<feComposite in2="hardAlpha" operator="out"/>
<feColorMatrix type="matrix" values="0 0 0 0 0.113438 0 0 0 0 0.148981 0 0 0 0 0.275 0 0 0 0.25 0"/>
<feBlend mode="normal" in2="effect1_backgroundBlur_115_924" result="effect2_dropShadow_115_924"/>
<feBlend mode="normal" in="SourceGraphic" in2="effect2_dropShadow_115_924" result="shape"/>
</filter>
<linearGradient id="paint0_linear_115_924" x1="223" y1="124.5" x2="223" y2="359.5" gradientUnits="userSpaceOnUse">
<stop stop-color="white"/>
<stop offset="1" stop-color="white" stop-opacity="0"/>
</linearGradient>
<linearGradient id="paint1_linear_115_924" x1="223" y1="176" x2="223" y2="337" gradientUnits="userSpaceOnUse">
<stop stop-color="white"/>
<stop offset="1" stop-color="white" stop-opacity="0"/>
</linearGradient>
<linearGradient id="paint2_linear_115_924" x1="330" y1="179.5" x2="330" y2="305.5" gradientUnits="userSpaceOnUse">
<stop stop-color="white"/>
<stop offset="1" stop-color="white" stop-opacity="0"/>
</linearGradient>
<linearGradient id="paint3_linear_115_924" x1="322" y1="176" x2="322" y2="292.353" gradientUnits="userSpaceOnUse">
<stop stop-color="white"/>
<stop offset="1" stop-color="white" stop-opacity="0"/>
</linearGradient>
</defs>
</svg>
