<svg width="375" height="574" viewBox="0 0 375 574" fill="none" xmlns="http://www.w3.org/2000/svg">
<g clip-path="url(#clip0_5_3453)">
<path d="M741 0H-2V427.686H741V0Z" fill="url(#paint0_linear_5_3453)"/>
<g opacity="0.59">
<path d="M305.707 35.5467C307.959 35.5467 307.959 31.9827 305.707 31.9827C303.456 31.9827 303.456 35.5467 305.707 35.5467Z" fill="#F1F2F2"/>
<path d="M183.75 63.9654C185.251 63.9654 185.251 61.6206 183.75 61.6206C182.249 61.7144 182.249 63.9654 183.75 63.9654Z" fill="#F1F2F2"/>
<path d="M248.481 103.358C249.982 103.358 249.982 101.013 248.481 101.013C246.98 101.107 246.98 103.358 248.481 103.358Z" fill="#F1F2F2"/>
<path d="M58.0404 279.684C59.5414 279.684 59.5414 277.34 58.0404 277.34C56.5394 277.433 56.5394 279.684 58.0404 279.684Z" fill="#F1F2F2"/>
<path d="M38.3396 149.315C39.8406 149.315 39.8406 146.97 38.3396 146.97C36.8386 147.064 36.8386 149.315 38.3396 149.315Z" fill="#F1F2F2"/>
<path d="M121.833 77.0961C123.334 77.0961 123.334 74.7513 121.833 74.7513C120.332 74.8451 120.332 77.0961 121.833 77.0961Z" fill="#F1F2F2"/>
<path d="M70.2361 53.367C72.4876 53.367 72.4876 49.803 70.2361 49.803C67.9845 49.803 67.9845 53.367 70.2361 53.367Z" fill="#F1F2F2"/>
<path d="M94.6275 112.455C96.879 112.455 96.879 108.891 94.6275 108.891C92.376 108.891 92.376 112.455 94.6275 112.455Z" fill="#F1F2F2"/>
<path d="M322.593 174.357C324.845 174.357 324.845 170.793 322.593 170.793C320.342 170.793 320.342 174.357 322.593 174.357Z" fill="#F1F2F2"/>
<path d="M151.854 303.789C154.105 303.789 154.105 300.224 151.854 300.224C149.602 300.224 149.602 303.789 151.854 303.789Z" fill="#F1F2F2"/>
<path d="M240.976 221.253C243.228 221.253 243.228 217.689 240.976 217.689C238.724 217.689 238.724 221.253 240.976 221.253Z" fill="#F1F2F2"/>
</g>
<path opacity="0.79" d="M170.147 356.311C162.923 354.998 158.233 349.277 159.64 343.556C161.047 337.741 168.365 333.708 175.87 334.833C175.401 331.082 178.684 327.611 183.281 326.861C187.878 326.111 192.475 328.174 193.976 331.738C193.694 330.707 192.568 325.454 196.696 320.296C200.824 315.325 207.109 314.012 208.423 313.73C209.267 310.166 212.832 307.446 217.147 307.165C222.026 306.79 226.716 309.604 227.748 313.73C234.878 311.667 242.665 313.449 247.168 317.857C250.92 321.609 251.764 326.861 249.325 331.457C252.234 327.611 257.769 325.642 263.21 326.486C268.838 327.33 273.248 330.894 274.092 335.49C274.373 335.396 280.19 332.864 285.819 335.49C289.853 337.366 292.104 341.024 291.447 344.775C293.605 342.43 297.17 341.68 299.703 342.712C302.236 343.744 303.362 346.932 302.517 349.183C299.422 357.906 266.212 358.938 266.212 358.938C266.212 358.938 245.104 359.782 223.151 359.594C202.325 359.5 191.912 358.656 187.502 358.187C180.373 357.718 174.369 356.874 170.147 356.311Z" fill="url(#paint1_linear_5_3453)"/>
<path opacity="0.79" d="M9.25756 330.331C2.03395 329.018 -2.65671 323.297 -1.24951 317.576C0.157684 311.761 7.47511 307.728 14.9802 308.853C14.5111 305.102 17.7946 301.631 22.3914 300.881C26.9882 300.131 31.5851 302.194 33.0861 305.758C32.8047 304.726 31.6789 299.474 35.8067 294.316C39.9345 289.345 46.2199 288.032 47.5333 287.75C48.3776 284.186 51.9425 281.466 56.2579 281.185C61.1362 280.81 65.8269 283.624 66.8588 287.75C73.9886 285.687 81.7751 287.469 86.2781 291.877C90.0307 295.629 90.875 300.881 88.4358 305.477C91.344 301.631 96.879 299.662 102.32 300.506C107.949 301.35 112.358 304.914 113.203 309.51C113.484 309.416 119.3 306.884 124.929 309.51C128.963 311.386 131.215 315.043 130.558 318.795C132.716 316.45 136.281 315.7 138.814 316.732C141.346 317.763 142.472 320.952 141.628 323.203C138.532 331.926 105.322 332.958 105.322 332.958C105.322 332.958 84.2142 333.802 62.262 333.614C41.4355 333.52 31.0222 332.676 26.613 332.207C19.4832 331.738 13.4791 330.988 9.25756 330.331Z" fill="url(#paint2_linear_5_3453)"/>
<path d="M741 356.03C737.623 351.997 734.245 348.058 730.962 344.025C731.056 344.963 731.9 355.467 726.178 362.877C721.018 369.536 714.545 368.41 713.607 368.223C711.636 368.41 699.816 369.442 691.373 357.437C688.089 352.747 686.401 347.589 685.556 344.025L670.077 356.124C656.568 338.491 638.65 318.326 616.041 299.662C600.468 286.906 585.739 277.34 572.605 270.118C567.915 282.029 555.25 309.885 530.202 329.206C506.373 347.589 484.046 348.433 474.289 348.058C471.381 347.026 465.752 344.4 460.78 337.272C458.435 333.989 456.934 330.613 455.996 327.893C448.115 339.992 435.263 356.968 416.407 370.849C393.891 387.544 345.202 396.266 339.198 389.701C331.13 380.697 331.412 367.004 331.506 365.503C323.813 374.882 316.027 384.355 308.334 393.734C297.358 381.447 282.629 367.285 263.96 354.811C247.074 343.462 231.407 336.428 218.648 332.02C207.579 343.743 173.524 377.696 132.809 384.449C114.328 387.544 93.3141 394.297 83.6514 377.696C76.0525 364.846 78.9607 344.963 80.7432 336.053C65.8269 346.932 49.7848 360.532 33.4614 377.696C28.3955 383.042 23.5172 388.482 19.0141 393.828C13.4792 392.14 -1.62475 381.916 -1.62475 381.916L-2 457.981C-2 457.981 491.082 455.355 741 454.042" fill="url(#paint3_linear_5_3453)"/>
<path d="M-2 367.941C1.75253 364.753 5.50505 361.47 9.35139 358.281C9.25758 358.938 8.41326 366.253 14.042 371.412C19.108 376.007 25.3934 375.257 26.2378 375.163C28.2078 375.351 39.653 376.007 47.8148 367.66C51.0044 364.377 52.5992 360.813 53.4436 358.281C58.4157 361.095 63.4816 363.908 68.4537 366.722C81.5875 354.342 99.0368 340.273 120.989 327.33C136.093 318.42 150.446 311.761 163.205 306.696C167.802 315.043 180.091 334.458 204.483 347.964C227.655 360.813 249.325 361.376 258.894 361.095C261.709 360.344 267.244 358.562 272.028 353.591C274.28 351.247 275.781 348.902 276.719 347.026C284.318 355.467 296.889 367.285 315.182 377.039C337.041 388.669 384.416 394.859 390.233 390.17C398.019 383.886 397.738 374.319 397.738 373.288L420.253 392.984C430.948 384.449 445.301 374.507 463.407 365.784C479.824 357.812 495.022 352.935 507.499 349.84C518.288 358 551.404 381.729 590.993 386.418C609.005 388.575 629.362 393.359 638.837 381.729C646.155 372.725 643.341 358.938 641.652 352.654C656.193 360.251 671.766 369.723 687.62 381.729C692.592 385.48 697.283 389.232 701.692 392.984C707.133 391.764 714.357 389.513 721.768 384.636C729.649 379.478 741 375.07 741.094 374.882V438.003L-2 435.189" fill="url(#paint4_linear_5_3453)"/>
<path d="M-1.53093 391.952C16.4812 383.886 39.0902 376.007 65.5455 371.693C141.065 359.313 192.662 384.824 276.625 405.176C316.308 414.743 370.626 419.995 479.261 430.5C594.652 441.661 741 449.821 741 449.821V485.837C741 485.837 9.91427 517.913 -2 520.914L-1.53093 391.952Z" fill="url(#paint5_linear_5_3453)"/>
<path d="M-1.53094 424.779C64.0444 444.381 177.84 475.051 311.805 447.382C325.971 444.475 321.092 444.944 346.516 438.941C469.88 409.678 741 419.902 741 419.902C741 419.902 741 510.41 741 509.753C741 509.097 236.942 607.202 -0.405187 467.923C-1.9062 436.784 -0.592813 464.921 -1.34332 430.5C-1.43713 428.718 -1.43713 426.842 -1.53094 424.779Z" fill="url(#paint6_linear_5_3453)"/>
<path d="M740 469.611C630.614 482.741 507.25 491.652 372.065 491.745C234.441 491.839 108.919 482.929 -2.06189 469.611V574.094H740V469.611Z" fill="url(#paint7_linear_5_3453)"/>
</g>
<defs>
<linearGradient id="paint0_linear_5_3453" x1="369.5" y1="-0.0256171" x2="369.5" y2="427.658" gradientUnits="userSpaceOnUse">
<stop offset="0.00623" stop-color="#53093B"/>
<stop offset="0.3144" stop-color="#D41E44"/>
<stop offset="0.8881" stop-color="#FAA61A"/>
<stop offset="0.9927" stop-color="#FFD800"/>
</linearGradient>
<linearGradient id="paint1_linear_5_3453" x1="231.097" y1="307.203" x2="231.097" y2="359.754" gradientUnits="userSpaceOnUse">
<stop stop-color="#FFF45F"/>
<stop offset="0.9949" stop-color="#EA9A97"/>
</linearGradient>
<linearGradient id="paint2_linear_5_3453" x1="70.2361" y1="281.279" x2="70.2361" y2="333.83" gradientUnits="userSpaceOnUse">
<stop stop-color="#FFF45F"/>
<stop offset="0.9949" stop-color="#EA9A97"/>
</linearGradient>
<linearGradient id="paint3_linear_5_3453" x1="369.462" y1="270.09" x2="369.462" y2="458.028" gradientUnits="userSpaceOnUse">
<stop offset="0.0051082" stop-color="#F5887B"/>
<stop offset="1" stop-color="#484A9F"/>
</linearGradient>
<linearGradient id="paint4_linear_5_3453" x1="369.5" y1="306.668" x2="369.5" y2="437.966" gradientUnits="userSpaceOnUse">
<stop stop-color="#A65F67"/>
<stop offset="1" stop-color="#4A0E37"/>
</linearGradient>
<linearGradient id="paint5_linear_5_3453" x1="369.5" y1="368.439" x2="369.5" y2="520.867" gradientUnits="userSpaceOnUse">
<stop stop-color="#76234F"/>
<stop offset="0.07601" stop-color="#691B45"/>
<stop offset="0.2073" stop-color="#520933"/>
<stop offset="0.3028" stop-color="#400025"/>
<stop offset="0.3518" stop-color="#38001D"/>
<stop offset="0.3902" stop-color="#33001D"/>
<stop offset="0.4774" stop-color="#29001E"/>
<stop offset="0.5665" stop-color="#20001F"/>
<stop offset="0.6572" stop-color="#190020"/>
<stop offset="0.7502" stop-color="#150020"/>
<stop offset="0.8493" stop-color="#130020"/>
</linearGradient>
<linearGradient id="paint6_linear_5_3453" x1="369.744" y1="418.176" x2="369.744" y2="542.655" gradientUnits="userSpaceOnUse">
<stop stop-color="#76234F"/>
<stop offset="0.07601" stop-color="#691B45"/>
<stop offset="0.2073" stop-color="#520933"/>
<stop offset="0.3028" stop-color="#400025"/>
<stop offset="0.3518" stop-color="#38001D"/>
<stop offset="0.3902" stop-color="#33001D"/>
<stop offset="0.4774" stop-color="#29001E"/>
<stop offset="0.5665" stop-color="#20001F"/>
<stop offset="0.6572" stop-color="#190020"/>
<stop offset="0.7502" stop-color="#150020"/>
<stop offset="0.8493" stop-color="#130020"/>
</linearGradient>
<linearGradient id="paint7_linear_5_3453" x1="368.969" y1="469.592" x2="368.969" y2="574.028" gradientUnits="userSpaceOnUse">
<stop stop-color="#76234F"/>
<stop offset="0.07601" stop-color="#691B45"/>
<stop offset="0.2073" stop-color="#520933"/>
<stop offset="0.3028" stop-color="#400025"/>
<stop offset="0.3518" stop-color="#38001D"/>
<stop offset="0.3902" stop-color="#33001D"/>
<stop offset="0.4774" stop-color="#29001E"/>
<stop offset="0.5665" stop-color="#20001F"/>
<stop offset="0.6572" stop-color="#190020"/>
<stop offset="0.7502" stop-color="#150020"/>
<stop offset="0.8493" stop-color="#130020"/>
</linearGradient>
<clipPath id="clip0_5_3453">
<rect width="743" height="574" fill="white" transform="translate(-2)"/>
</clipPath>
</defs>
</svg>
