<svg width="375" height="578" viewBox="0 0 375 578" fill="none" xmlns="http://www.w3.org/2000/svg">
<g clip-path="url(#clip0_5_3438)">
<path d="M375 0H-374V430.667H375V0Z" fill="url(#paint0_linear_5_3438)"/>
<path opacity="0.79" d="M130.535 322.339C123.253 321.017 118.524 315.256 119.943 309.494C121.361 303.639 128.738 299.578 136.304 300.711C135.831 296.933 139.141 293.439 143.775 292.683C148.409 291.928 153.043 294.006 154.556 297.594C154.272 296.556 153.137 291.267 157.298 286.072C161.459 281.067 167.796 279.744 169.12 279.461C169.971 275.872 173.564 273.133 177.915 272.85C182.832 272.472 187.561 275.306 188.601 279.461C195.789 277.383 203.638 279.178 208.177 283.617C211.96 287.394 212.811 292.683 210.353 297.311C213.284 293.439 218.864 291.456 224.349 292.306C230.023 293.156 234.468 296.744 235.319 301.372C235.603 301.278 241.466 298.728 247.14 301.372C251.207 303.261 253.477 306.944 252.815 310.722C254.99 308.361 258.584 307.606 261.137 308.644C263.69 309.683 264.825 312.894 263.974 315.161C260.853 323.944 227.375 324.983 227.375 324.983C227.375 324.983 206.097 325.833 183.967 325.644C162.973 325.55 152.475 324.7 148.03 324.228C140.843 323.756 134.885 322.906 130.535 322.339Z" fill="url(#paint1_linear_5_3438)"/>
<path opacity="0.79" d="M39.274 344.061C28.4929 342.267 21.5893 334.428 23.5753 326.683C25.6558 318.656 36.5315 313.272 47.6908 314.783C47.0288 309.683 51.8519 304.961 58.661 303.922C65.4701 302.883 72.2792 305.717 74.6434 310.533C74.2652 309.117 72.5629 301.939 78.8046 294.95C84.8571 288.15 94.3141 286.356 96.3001 285.978C97.5296 281.067 102.92 277.478 109.256 277.006C116.538 276.533 123.537 280.311 125.05 285.978C135.642 283.239 147.274 285.506 153.894 291.644C159.473 296.839 160.703 304.017 157.109 310.344C161.459 305.15 169.687 302.411 177.82 303.544C186.237 304.678 192.762 309.589 193.992 315.822C194.37 315.633 203.07 312.233 211.487 315.822C217.445 318.372 220.755 323.378 219.904 328.572C223.119 325.361 228.51 324.322 232.198 325.739C236.076 327.156 237.683 331.5 236.454 334.617C231.82 346.517 182.454 347.933 182.359 347.933C182.359 347.933 151.057 349.067 118.335 348.878C87.4105 348.689 71.9009 347.556 65.281 346.989C54.4999 346.044 45.6102 344.911 39.274 344.061Z" fill="url(#paint2_linear_5_3438)"/>
<path d="M375 358.511C371.595 354.45 368.191 350.483 364.881 346.422C364.976 347.367 365.827 357.944 360.058 365.406C354.856 372.111 348.331 370.978 347.385 370.789C345.399 370.978 333.483 372.017 324.972 359.928C321.662 355.206 319.96 350.011 319.109 346.422L303.505 358.606C289.886 340.85 271.823 320.544 249.032 301.75C233.333 288.906 218.485 279.272 205.246 272C200.517 283.994 187.75 312.044 162.5 331.5C138.479 350.011 115.971 350.861 106.135 350.483C103.204 349.444 97.5295 346.8 92.5173 339.622C90.153 336.317 88.6399 332.917 87.6942 330.178C79.7503 342.361 66.7941 359.456 47.7854 373.433C25.0884 390.244 -23.9938 399.028 -30.0463 392.417C-38.1794 383.35 -37.8957 369.561 -37.8011 368.05C-45.5559 377.494 -53.4053 387.033 -61.1601 396.478C-72.2249 384.106 -87.0725 369.844 -105.892 357.283C-122.915 345.856 -138.708 338.772 -151.57 334.333C-162.729 346.139 -197.058 380.328 -238.102 387.128C-256.732 390.244 -277.916 397.044 -287.657 380.328C-295.317 367.389 -292.385 347.367 -290.589 338.394C-305.625 349.35 -321.797 363.044 -338.252 380.328C-343.359 385.711 -348.277 391.189 -352.816 396.572C-358.396 394.872 -373.622 384.578 -373.622 384.578L-374 461.172C-374 461.172 123.064 458.528 375 457.206" fill="url(#paint3_linear_5_3438)"/>
<path d="M-374 370.506C-370.217 367.294 -366.434 363.989 -362.557 360.778C-362.652 361.439 -363.503 368.806 -357.828 374C-352.722 378.628 -346.385 377.872 -345.534 377.778C-343.548 377.967 -332.011 378.628 -323.783 370.222C-320.568 366.917 -318.96 363.328 -318.109 360.778C-313.096 363.611 -307.99 366.444 -302.977 369.278C-289.738 356.811 -272.147 342.644 -250.018 329.611C-234.792 320.639 -220.323 313.933 -207.461 308.833C-202.827 317.239 -190.438 336.789 -165.85 350.389C-142.491 363.328 -120.645 363.894 -110.999 363.611C-108.162 362.856 -102.582 361.061 -97.7589 356.056C-95.4893 353.694 -93.9761 351.333 -93.0304 349.444C-85.3702 357.944 -72.6977 369.844 -54.2564 379.667C-32.2215 391.378 15.5367 397.611 21.4001 392.889C29.2495 386.561 28.9658 376.928 28.9658 375.889L51.6628 395.722C62.4438 387.128 76.9131 377.117 95.1653 368.333C111.715 360.306 127.036 355.394 139.613 352.278C150.489 360.494 183.873 384.389 223.781 389.111C241.939 391.283 262.461 396.1 272.013 384.389C279.389 375.322 276.552 361.439 274.85 355.111C289.508 362.761 305.207 372.3 321.189 384.389C326.201 388.167 330.93 391.944 335.375 395.722C340.86 394.494 348.142 392.228 355.613 387.317C363.557 382.122 375 377.683 375.095 377.494V441.056L-374 438.222" fill="url(#paint4_linear_5_3438)"/>
<path d="M-373.527 394.683C-355.37 386.561 -332.578 378.628 -305.909 374.283C-229.78 361.817 -177.766 387.506 -93.125 408C-53.1216 417.633 1.63486 422.922 111.148 433.5C227.47 444.739 375 452.956 375 452.956V489.222C375 489.222 -361.99 521.522 -374 524.544L-373.527 394.683Z" fill="url(#paint5_linear_5_3438)"/>
<path d="M-373.527 427.739C-307.422 447.478 -192.708 478.361 -57.661 450.5C-43.3808 447.572 -48.2985 448.044 -22.6698 442C101.691 412.533 375 422.828 375 422.828C375 422.828 375 513.967 375 513.306C375 512.644 -133.128 611.433 -372.392 471.183C-373.905 439.828 -372.581 468.161 -373.338 433.5C-373.433 431.706 -373.433 429.817 -373.527 427.739Z" fill="url(#paint6_linear_5_3438)"/>
<path d="M375 472.883C264.731 486.106 140.37 495.078 4.09366 495.172C-134.642 495.267 -261.177 486.294 -373.054 472.883V578.094H375V472.883Z" fill="url(#paint7_linear_5_3438)"/>
</g>
<defs>
<linearGradient id="paint0_linear_5_3438" x1="0.500026" y1="-0.0257956" x2="0.500026" y2="430.638" gradientUnits="userSpaceOnUse">
<stop stop-color="#0088BC"/>
<stop offset="0.9949" stop-color="#D5EEF1"/>
</linearGradient>
<linearGradient id="paint1_linear_5_3438" x1="192.034" y1="272.888" x2="192.034" y2="325.805" gradientUnits="userSpaceOnUse">
<stop stop-color="white"/>
<stop offset="0.9949" stop-color="#DBEFF9"/>
</linearGradient>
<linearGradient id="paint2_linear_5_3438" x1="130.005" y1="277.006" x2="130.005" y2="348.84" gradientUnits="userSpaceOnUse">
<stop stop-color="white"/>
<stop offset="0.9949" stop-color="#DBEFF9"/>
</linearGradient>
<linearGradient id="paint3_linear_5_3438" x1="0.5" y1="271.972" x2="0.5" y2="461.219" gradientUnits="userSpaceOnUse">
<stop stop-color="#ADD1EF"/>
<stop offset="0.9949" stop-color="#4DB3E6"/>
</linearGradient>
<linearGradient id="paint4_linear_5_3438" x1="0.499989" y1="308.805" x2="0.499989" y2="441.018" gradientUnits="userSpaceOnUse">
<stop stop-color="#BACFEB"/>
<stop offset="1" stop-color="#5783C3"/>
</linearGradient>
<linearGradient id="paint5_linear_5_3438" x1="0.5" y1="371.006" x2="0.5" y2="524.497" gradientUnits="userSpaceOnUse">
<stop stop-color="#88C03F"/>
<stop offset="0.9667" stop-color="#5C892A"/>
</linearGradient>
<linearGradient id="paint6_linear_5_3438" x1="0.745876" y1="421.09" x2="0.745876" y2="546.437" gradientUnits="userSpaceOnUse">
<stop stop-color="#88C03F"/>
<stop offset="0.9974" stop-color="#48701F"/>
</linearGradient>
<linearGradient id="paint7_linear_5_3438" x1="0.972864" y1="472.864" x2="0.972864" y2="578.028" gradientUnits="userSpaceOnUse">
<stop stop-color="#8DC63F"/>
<stop offset="0.9693" stop-color="#61823E"/>
</linearGradient>
<clipPath id="clip0_5_3438">
<rect width="749" height="578" fill="white" transform="translate(-374)"/>
</clipPath>
</defs>
</svg>
