<svg width="512" height="512" viewBox="0 0 512 512" fill="none" xmlns="http://www.w3.org/2000/svg">
<g filter="url(#filter0_bd_114_395)">
<mask id="path-1-inside-1_114_395" fill="white">
<path fill-rule="evenodd" clip-rule="evenodd" d="M298.5 307.997C298.666 307.999 298.833 308 299 308C322.748 308 342 288.748 342 265C342 241.252 322.748 222 299 222C298.833 222 298.666 222.001 298.5 222.003V222H287.391C287.793 219.057 288 216.053 288 213C288 176.549 258.451 147 222 147C185.549 147 156 176.549 156 213C156 216.439 156.263 219.817 156.77 223.115C153.631 222.386 150.361 222 147 222C123.252 222 104 241.252 104 265C104 288.748 123.252 308 147 308C147.168 308 147.335 307.999 147.502 307.997L147.5 308H298.5V307.997Z"/>
</mask>
<path fill-rule="evenodd" clip-rule="evenodd" d="M298.5 307.997C298.666 307.999 298.833 308 299 308C322.748 308 342 288.748 342 265C342 241.252 322.748 222 299 222C298.833 222 298.666 222.001 298.5 222.003V222H287.391C287.793 219.057 288 216.053 288 213C288 176.549 258.451 147 222 147C185.549 147 156 176.549 156 213C156 216.439 156.263 219.817 156.77 223.115C153.631 222.386 150.361 222 147 222C123.252 222 104 241.252 104 265C104 288.748 123.252 308 147 308C147.168 308 147.335 307.999 147.502 307.997L147.5 308H298.5V307.997Z" fill="url(#paint0_linear_114_395)" shape-rendering="crispEdges"/>
<path d="M298.5 307.997L298.523 305.997C297.988 305.991 297.474 306.199 297.094 306.575C296.714 306.951 296.5 307.463 296.5 307.997H298.5ZM298.5 222.003H296.5C296.5 222.537 296.714 223.049 297.094 223.425C297.474 223.801 297.988 224.009 298.523 224.003L298.5 222.003ZM298.5 222H300.5C300.5 220.895 299.605 220 298.5 220V222ZM287.391 222L285.41 221.73C285.332 222.302 285.505 222.88 285.885 223.315C286.265 223.75 286.814 224 287.391 224V222ZM156.77 223.115L156.318 225.063C156.964 225.213 157.643 225.033 158.13 224.582C158.617 224.13 158.848 223.467 158.747 222.811L156.77 223.115ZM147.502 307.997L149.072 309.237C149.549 308.632 149.637 307.807 149.297 307.115C148.957 306.423 148.25 305.988 147.479 305.997L147.502 307.997ZM147.5 308L145.931 306.76C145.455 307.362 145.366 308.182 145.7 308.872C146.034 309.562 146.733 310 147.5 310V308ZM298.5 308V310C299.605 310 300.5 309.105 300.5 308H298.5ZM298.477 309.997C298.651 309.999 298.825 310 299 310V306C298.841 306 298.682 305.999 298.523 305.997L298.477 309.997ZM299 310C323.853 310 344 289.853 344 265H340C340 287.644 321.644 306 299 306V310ZM344 265C344 240.147 323.853 220 299 220V224C321.644 224 340 242.356 340 265H344ZM299 220C298.826 220 298.651 220.001 298.477 220.003L298.523 224.003C298.682 224.001 298.841 224 299 224V220ZM296.5 222V222.003H300.5V222H296.5ZM287.391 224H298.5V220H287.391V224ZM289.373 222.27C289.787 219.238 290 216.143 290 213H286C286 215.962 285.799 218.876 285.41 221.73L289.373 222.27ZM290 213C290 175.445 259.555 145 222 145V149C257.346 149 286 177.654 286 213H290ZM222 145C184.445 145 154 175.445 154 213H158C158 177.654 186.654 149 222 149V145ZM154 213C154 216.542 154.271 220.021 154.793 223.419L158.747 222.811C158.255 219.614 158 216.337 158 213H154ZM157.223 221.167C153.937 220.403 150.514 220 147 220V224C150.207 224 153.326 224.368 156.318 225.063L157.223 221.167ZM147 220C122.147 220 102 240.147 102 265H106C106 242.356 124.356 224 147 224V220ZM102 265C102 289.853 122.147 310 147 310V306C124.356 306 106 287.644 106 265H102ZM147 310C147.175 310 147.35 309.999 147.525 309.997L147.479 305.997C147.32 305.999 147.16 306 147 306V310ZM149.069 309.24L149.072 309.237L145.933 306.757L145.931 306.76L149.069 309.24ZM298.5 306H147.5V310H298.5V306ZM296.5 307.997V308H300.5V307.997H296.5Z" fill="url(#paint1_linear_114_395)" mask="url(#path-1-inside-1_114_395)"/>
</g>
<g filter="url(#filter1_bd_114_395)">
<mask id="path-3-inside-2_114_395" fill="white">
<path fill-rule="evenodd" clip-rule="evenodd" d="M376.563 263.351C376.683 263.352 376.804 263.353 376.924 263.353C394.087 263.353 408 249.44 408 232.277C408 215.115 394.087 201.202 376.924 201.202C376.804 201.202 376.683 201.202 376.563 201.204V201.202H368.535C368.825 199.075 368.975 196.904 368.975 194.697C368.975 168.355 347.62 147 321.277 147C294.935 147 273.58 168.355 273.58 194.697C273.58 197.183 273.77 199.624 274.136 202.007C271.868 201.48 269.504 201.202 267.076 201.202C249.913 201.202 236 215.115 236 232.277C236 249.44 249.913 263.353 267.076 263.353C267.197 263.353 267.318 263.352 267.439 263.351L267.437 263.353H376.563V263.351Z"/>
</mask>
<path fill-rule="evenodd" clip-rule="evenodd" d="M376.563 263.351C376.683 263.352 376.804 263.353 376.924 263.353C394.087 263.353 408 249.44 408 232.277C408 215.115 394.087 201.202 376.924 201.202C376.804 201.202 376.683 201.202 376.563 201.204V201.202H368.535C368.825 199.075 368.975 196.904 368.975 194.697C368.975 168.355 347.62 147 321.277 147C294.935 147 273.58 168.355 273.58 194.697C273.58 197.183 273.77 199.624 274.136 202.007C271.868 201.48 269.504 201.202 267.076 201.202C249.913 201.202 236 215.115 236 232.277C236 249.44 249.913 263.353 267.076 263.353C267.197 263.353 267.318 263.352 267.439 263.351L267.437 263.353H376.563V263.351Z" fill="url(#paint2_linear_114_395)" shape-rendering="crispEdges"/>
<path d="M376.563 263.351L376.586 261.351C376.052 261.345 375.537 261.553 375.157 261.929C374.777 262.304 374.563 262.816 374.563 263.351H376.563ZM376.563 201.204H374.563C374.563 201.738 374.777 202.25 375.157 202.626C375.537 203.002 376.051 203.21 376.586 203.204L376.563 201.204ZM376.563 201.202H378.563C378.563 200.097 377.668 199.202 376.563 199.202V201.202ZM368.535 201.202L366.553 200.931C366.475 201.504 366.649 202.082 367.028 202.517C367.408 202.952 367.957 203.202 368.535 203.202V201.202ZM274.136 202.007L273.684 203.955C274.33 204.106 275.009 203.925 275.496 203.474C275.983 203.023 276.214 202.359 276.113 201.703L274.136 202.007ZM267.439 263.351L269.008 264.59C269.486 263.985 269.573 263.16 269.233 262.468C268.893 261.777 268.186 261.342 267.416 261.351L267.439 263.351ZM267.437 263.353L265.867 262.114C265.392 262.715 265.303 263.535 265.637 264.225C265.971 264.915 266.67 265.353 267.437 265.353V263.353ZM376.563 263.353V265.353C377.668 265.353 378.563 264.458 378.563 263.353H376.563ZM376.54 265.351C376.668 265.352 376.796 265.353 376.924 265.353V261.353C376.811 261.353 376.699 261.352 376.586 261.351L376.54 265.351ZM376.924 265.353C395.192 265.353 410 250.544 410 232.277H406C406 248.335 392.982 261.353 376.924 261.353V265.353ZM410 232.277C410 214.01 395.192 199.202 376.924 199.202V203.202C392.982 203.202 406 216.219 406 232.277H410ZM376.924 199.202C376.796 199.202 376.668 199.202 376.54 199.204L376.586 203.204C376.699 203.202 376.811 203.202 376.924 203.202V199.202ZM374.563 201.202V201.204H378.563V201.202H374.563ZM368.535 203.202H376.563V199.202H368.535V203.202ZM370.517 201.472C370.819 199.256 370.975 196.994 370.975 194.697H366.975C366.975 196.813 366.831 198.894 366.553 200.931L370.517 201.472ZM370.975 194.697C370.975 167.25 348.724 145 321.277 145V149C346.515 149 366.975 169.459 366.975 194.697H370.975ZM321.277 145C293.83 145 271.58 167.25 271.58 194.697H275.58C275.58 169.459 296.039 149 321.277 149V145ZM271.58 194.697C271.58 197.285 271.778 199.828 272.16 202.311L276.113 201.703C275.762 199.421 275.58 197.081 275.58 194.697H271.58ZM274.589 200.059C272.173 199.498 269.658 199.202 267.076 199.202V203.202C269.351 203.202 271.563 203.463 273.684 203.955L274.589 200.059ZM267.076 199.202C248.808 199.202 234 214.01 234 232.277H238C238 216.219 251.018 203.202 267.076 203.202V199.202ZM234 232.277C234 250.544 248.808 265.353 267.076 265.353V261.353C251.018 261.353 238 248.335 238 232.277H234ZM267.076 265.353C267.204 265.353 267.333 265.352 267.461 265.351L267.416 261.351C267.303 261.352 267.189 261.353 267.076 261.353V265.353ZM269.007 264.592L269.008 264.59L265.869 262.112L265.867 262.114L269.007 264.592ZM376.563 261.353H267.437V265.353H376.563V261.353ZM374.563 263.351V263.353H378.563V263.351H374.563Z" fill="url(#paint3_linear_114_395)" mask="url(#path-3-inside-2_114_395)"/>
</g>
<g filter="url(#filter2_bdd_114_395)">
<path d="M198.708 281.3C202.01 277.062 208.798 279.127 209.181 284.486L210.354 300.919C210.963 309.447 202.831 315.936 194.65 313.448C186.47 310.959 183.328 301.041 188.583 294.296L198.708 281.3Z" fill="url(#paint4_linear_114_395)" stroke="url(#paint5_linear_114_395)" stroke-width="2"/>
<path d="M256.215 281.3C259.517 277.062 266.306 279.127 266.688 284.486L267.862 300.919C268.471 309.447 260.338 315.936 252.158 313.448C243.978 310.959 240.835 301.041 246.09 294.296L256.215 281.3Z" fill="url(#paint6_linear_114_395)" stroke="url(#paint7_linear_114_395)" stroke-width="2"/>
<path d="M313.723 281.3C317.024 277.062 323.813 279.127 324.196 284.486L325.369 300.919C325.978 309.447 317.845 315.936 309.665 313.448C301.485 310.959 298.343 301.041 303.597 294.296L313.723 281.3Z" fill="url(#paint8_linear_114_395)" stroke="url(#paint9_linear_114_395)" stroke-width="2"/>
</g>
<g filter="url(#filter3_bdd_114_395)">
<path d="M213.881 326.82C217.183 322.583 223.972 324.647 224.354 330.006L225.528 346.439C226.137 354.968 218.004 361.456 209.824 358.968C201.644 356.48 198.501 346.561 203.756 339.817L213.881 326.82Z" fill="url(#paint10_linear_114_395)" stroke="url(#paint11_linear_114_395)" stroke-width="2"/>
<path d="M262.468 326.82C265.77 322.583 272.559 324.647 272.941 330.006L274.115 346.439C274.724 354.968 266.591 361.456 258.411 358.968C250.23 356.48 247.088 346.561 252.343 339.817L262.468 326.82Z" fill="url(#paint12_linear_114_395)" stroke="url(#paint13_linear_114_395)" stroke-width="2"/>
</g>
<defs>
<filter id="filter0_bd_114_395" x="33" y="112" width="338" height="261" filterUnits="userSpaceOnUse" color-interpolation-filters="sRGB">
<feFlood flood-opacity="0" result="BackgroundImageFix"/>
<feGaussianBlur in="BackgroundImageFix" stdDeviation="7"/>
<feComposite in2="SourceAlpha" operator="in" result="effect1_backgroundBlur_114_395"/>
<feColorMatrix in="SourceAlpha" type="matrix" values="0 0 0 0 0 0 0 0 0 0 0 0 0 0 0 0 0 0 127 0" result="hardAlpha"/>
<feOffset dx="-21" dy="15"/>
<feGaussianBlur stdDeviation="25"/>
<feComposite in2="hardAlpha" operator="out"/>
<feColorMatrix type="matrix" values="0 0 0 0 0.113725 0 0 0 0 0.14902 0 0 0 0 0.27451 0 0 0 0.25 0"/>
<feBlend mode="normal" in2="effect1_backgroundBlur_114_395" result="effect2_dropShadow_114_395"/>
<feBlend mode="normal" in="SourceGraphic" in2="effect2_dropShadow_114_395" result="shape"/>
</filter>
<filter id="filter1_bd_114_395" x="165" y="112" width="272" height="216.353" filterUnits="userSpaceOnUse" color-interpolation-filters="sRGB">
<feFlood flood-opacity="0" result="BackgroundImageFix"/>
<feGaussianBlur in="BackgroundImageFix" stdDeviation="7"/>
<feComposite in2="SourceAlpha" operator="in" result="effect1_backgroundBlur_114_395"/>
<feColorMatrix in="SourceAlpha" type="matrix" values="0 0 0 0 0 0 0 0 0 0 0 0 0 0 0 0 0 0 127 0" result="hardAlpha"/>
<feOffset dx="-21" dy="15"/>
<feGaussianBlur stdDeviation="25"/>
<feComposite in2="hardAlpha" operator="out"/>
<feColorMatrix type="matrix" values="0 0 0 0 0.113438 0 0 0 0 0.148981 0 0 0 0 0.275 0 0 0 0.25 0"/>
<feBlend mode="normal" in2="effect1_backgroundBlur_114_395" result="effect2_dropShadow_114_395"/>
<feBlend mode="normal" in="SourceGraphic" in2="effect2_dropShadow_114_395" result="shape"/>
</filter>
<filter id="filter2_bdd_114_395" x="114.002" y="230.031" width="253.399" height="149.955" filterUnits="userSpaceOnUse" color-interpolation-filters="sRGB">
<feFlood flood-opacity="0" result="BackgroundImageFix"/>
<feGaussianBlur in="BackgroundImageFix" stdDeviation="7"/>
<feComposite in2="SourceAlpha" operator="in" result="effect1_backgroundBlur_114_395"/>
<feColorMatrix in="SourceAlpha" type="matrix" values="0 0 0 0 0 0 0 0 0 0 0 0 0 0 0 0 0 0 127 0" result="hardAlpha"/>
<feOffset dx="-21" dy="15"/>
<feGaussianBlur stdDeviation="25"/>
<feComposite in2="hardAlpha" operator="out"/>
<feColorMatrix type="matrix" values="0 0 0 0 0.113438 0 0 0 0 0.148981 0 0 0 0 0.275 0 0 0 0.25 0"/>
<feBlend mode="normal" in2="effect1_backgroundBlur_114_395" result="effect2_dropShadow_114_395"/>
<feColorMatrix in="SourceAlpha" type="matrix" values="0 0 0 0 0 0 0 0 0 0 0 0 0 0 0 0 0 0 127 0" result="hardAlpha"/>
<feOffset dy="-7"/>
<feGaussianBlur stdDeviation="20.5"/>
<feComposite in2="hardAlpha" operator="out"/>
<feColorMatrix type="matrix" values="0 0 0 0 0.1375 0 0 0 0 0.74125 0 0 0 0 1 0 0 0 0.3 0"/>
<feBlend mode="normal" in2="effect2_dropShadow_114_395" result="effect3_dropShadow_114_395"/>
<feBlend mode="normal" in="SourceGraphic" in2="effect3_dropShadow_114_395" result="shape"/>
</filter>
<filter id="filter3_bdd_114_395" x="129.175" y="275.551" width="186.972" height="149.955" filterUnits="userSpaceOnUse" color-interpolation-filters="sRGB">
<feFlood flood-opacity="0" result="BackgroundImageFix"/>
<feGaussianBlur in="BackgroundImageFix" stdDeviation="7"/>
<feComposite in2="SourceAlpha" operator="in" result="effect1_backgroundBlur_114_395"/>
<feColorMatrix in="SourceAlpha" type="matrix" values="0 0 0 0 0 0 0 0 0 0 0 0 0 0 0 0 0 0 127 0" result="hardAlpha"/>
<feOffset dx="-21" dy="15"/>
<feGaussianBlur stdDeviation="25"/>
<feComposite in2="hardAlpha" operator="out"/>
<feColorMatrix type="matrix" values="0 0 0 0 0.113438 0 0 0 0 0.148981 0 0 0 0 0.275 0 0 0 0.25 0"/>
<feBlend mode="normal" in2="effect1_backgroundBlur_114_395" result="effect2_dropShadow_114_395"/>
<feColorMatrix in="SourceAlpha" type="matrix" values="0 0 0 0 0 0 0 0 0 0 0 0 0 0 0 0 0 0 127 0" result="hardAlpha"/>
<feOffset dy="-7"/>
<feGaussianBlur stdDeviation="20.5"/>
<feComposite in2="hardAlpha" operator="out"/>
<feColorMatrix type="matrix" values="0 0 0 0 0.1375 0 0 0 0 0.74125 0 0 0 0 1 0 0 0 0.3 0"/>
<feBlend mode="normal" in2="effect2_dropShadow_114_395" result="effect3_dropShadow_114_395"/>
<feBlend mode="normal" in="SourceGraphic" in2="effect3_dropShadow_114_395" result="shape"/>
</filter>
<linearGradient id="paint0_linear_114_395" x1="223" y1="95.5" x2="223" y2="330.5" gradientUnits="userSpaceOnUse">
<stop stop-color="white"/>
<stop offset="1" stop-color="white" stop-opacity="0"/>
</linearGradient>
<linearGradient id="paint1_linear_114_395" x1="223" y1="147" x2="223" y2="308" gradientUnits="userSpaceOnUse">
<stop stop-color="white"/>
<stop offset="1" stop-color="white" stop-opacity="0"/>
</linearGradient>
<linearGradient id="paint2_linear_114_395" x1="330" y1="150.5" x2="330" y2="276.5" gradientUnits="userSpaceOnUse">
<stop stop-color="white"/>
<stop offset="1" stop-color="white" stop-opacity="0"/>
</linearGradient>
<linearGradient id="paint3_linear_114_395" x1="322" y1="147" x2="322" y2="263.353" gradientUnits="userSpaceOnUse">
<stop stop-color="white"/>
<stop offset="1" stop-color="white" stop-opacity="0"/>
</linearGradient>
<linearGradient id="paint4_linear_114_395" x1="208.905" y1="266.585" x2="194.359" y2="314.404" gradientUnits="userSpaceOnUse">
<stop stop-color="#138EFF"/>
<stop offset="1" stop-color="#00E0FF"/>
</linearGradient>
<linearGradient id="paint5_linear_114_395" x1="208.905" y1="266.585" x2="194.359" y2="314.404" gradientUnits="userSpaceOnUse">
<stop stop-color="white"/>
<stop offset="1" stop-color="white" stop-opacity="0"/>
</linearGradient>
<linearGradient id="paint6_linear_114_395" x1="266.413" y1="266.585" x2="251.867" y2="314.404" gradientUnits="userSpaceOnUse">
<stop stop-color="#138EFF"/>
<stop offset="1" stop-color="#00E0FF"/>
</linearGradient>
<linearGradient id="paint7_linear_114_395" x1="266.413" y1="266.585" x2="251.867" y2="314.404" gradientUnits="userSpaceOnUse">
<stop stop-color="white"/>
<stop offset="1" stop-color="white" stop-opacity="0"/>
</linearGradient>
<linearGradient id="paint8_linear_114_395" x1="323.92" y1="266.585" x2="309.374" y2="314.404" gradientUnits="userSpaceOnUse">
<stop stop-color="#138EFF"/>
<stop offset="1" stop-color="#00E0FF"/>
</linearGradient>
<linearGradient id="paint9_linear_114_395" x1="323.92" y1="266.585" x2="309.374" y2="314.404" gradientUnits="userSpaceOnUse">
<stop stop-color="white"/>
<stop offset="1" stop-color="white" stop-opacity="0"/>
</linearGradient>
<linearGradient id="paint10_linear_114_395" x1="224.079" y1="312.105" x2="209.533" y2="359.925" gradientUnits="userSpaceOnUse">
<stop stop-color="#138EFF"/>
<stop offset="1" stop-color="#00E0FF"/>
</linearGradient>
<linearGradient id="paint11_linear_114_395" x1="224.079" y1="312.105" x2="209.533" y2="359.925" gradientUnits="userSpaceOnUse">
<stop stop-color="white"/>
<stop offset="1" stop-color="white" stop-opacity="0"/>
</linearGradient>
<linearGradient id="paint12_linear_114_395" x1="272.666" y1="312.105" x2="258.12" y2="359.925" gradientUnits="userSpaceOnUse">
<stop stop-color="#138EFF"/>
<stop offset="1" stop-color="#00E0FF"/>
</linearGradient>
<linearGradient id="paint13_linear_114_395" x1="272.666" y1="312.105" x2="258.12" y2="359.925" gradientUnits="userSpaceOnUse">
<stop stop-color="white"/>
<stop offset="1" stop-color="white" stop-opacity="0"/>
</linearGradient>
</defs>
</svg>
